M48
; DRILL file {KiCad 8.0.1} date 2024-04-26T21:14:45-0600
; FORMAT={-:-/ absolute / inch / decimal}
; #@! TF.CreationDate,2024-04-26T21:14:45-06:00
; #@! TF.GenerationSoftware,Kicad,Pcbnew,8.0.1
; #@! TF.FileFunction,MixedPlating,1,2
FMAT,2
INCH
; #@! TA.AperFunction,Plated,PTH,ViaDrill
T1C0.0118
; #@! TA.AperFunction,Plated,PTH,ViaDrill
T2C0.0157
; #@! TA.AperFunction,Plated,PTH,ComponentDrill
T3C0.0394
; #@! TA.AperFunction,Plated,PTH,ComponentDrill
T4C0.0984
%
G90
G05
T1
X6.036Y-3.182
X6.04Y-3.513
X6.055Y-3.386
X6.056Y-3.317
X6.118Y-3.486
X6.175Y-3.659
X6.201Y-3.045
X6.203Y-3.24
X6.4135Y-3.3865
X6.479Y-3.339
X6.5Y-3.213
X6.506Y-3.493
X6.56Y-3.216
X6.575Y-3.3798
X6.575Y-3.431
X6.619Y-3.4573
X6.62Y-3.214
X6.662Y-3.4306
X6.68Y-3.206
X6.72Y-3.25
X6.744Y-3.331
X6.812Y-3.653
X6.823Y-3.038
X6.8599Y-3.2909
X6.862Y-3.491
X6.951Y-3.308
X6.953Y-3.372
X6.961Y-3.174
T2
X6.133Y-3.33
X6.241Y-3.456
X6.338Y-3.494
X6.43Y-3.236
X6.44Y-3.162
X6.798Y-3.084
T3
X6.25Y-3.609
X6.35Y-3.609
X6.45Y-3.609
X6.55Y-3.609
X6.65Y-3.609
X6.75Y-3.609
T4
X6.1Y-3.1
X6.1Y-3.6
X6.9Y-3.1
X6.9Y-3.6
M30
