%TF.GenerationSoftware,KiCad,Pcbnew,8.0.1*%
%TF.CreationDate,2024-04-26T21:14:53-06:00*%
%TF.ProjectId,apds-9306-sensor,61706473-2d39-4333-9036-2d73656e736f,rev?*%
%TF.SameCoordinates,Original*%
%TF.FileFunction,Legend,Top*%
%TF.FilePolarity,Positive*%
%FSLAX46Y46*%
G04 Gerber Fmt 4.6, Leading zero omitted, Abs format (unit mm)*
G04 Created by KiCad (PCBNEW 8.0.1) date 2024-04-26 21:14:53*
%MOMM*%
%LPD*%
G01*
G04 APERTURE LIST*
%ADD10C,0.200000*%
%ADD11C,0.150000*%
%ADD12C,0.120000*%
%ADD13C,0.127000*%
%ADD14C,0.152400*%
G04 APERTURE END LIST*
D10*
X165307758Y-90049000D02*
X165422044Y-90087095D01*
X165422044Y-90087095D02*
X165612520Y-90087095D01*
X165612520Y-90087095D02*
X165688711Y-90049000D01*
X165688711Y-90049000D02*
X165726806Y-90010904D01*
X165726806Y-90010904D02*
X165764901Y-89934714D01*
X165764901Y-89934714D02*
X165764901Y-89858523D01*
X165764901Y-89858523D02*
X165726806Y-89782333D01*
X165726806Y-89782333D02*
X165688711Y-89744238D01*
X165688711Y-89744238D02*
X165612520Y-89706142D01*
X165612520Y-89706142D02*
X165460139Y-89668047D01*
X165460139Y-89668047D02*
X165383949Y-89629952D01*
X165383949Y-89629952D02*
X165345854Y-89591857D01*
X165345854Y-89591857D02*
X165307758Y-89515666D01*
X165307758Y-89515666D02*
X165307758Y-89439476D01*
X165307758Y-89439476D02*
X165345854Y-89363285D01*
X165345854Y-89363285D02*
X165383949Y-89325190D01*
X165383949Y-89325190D02*
X165460139Y-89287095D01*
X165460139Y-89287095D02*
X165650616Y-89287095D01*
X165650616Y-89287095D02*
X165764901Y-89325190D01*
X166107759Y-90087095D02*
X166107759Y-89287095D01*
X166107759Y-89287095D02*
X166298235Y-89287095D01*
X166298235Y-89287095D02*
X166412521Y-89325190D01*
X166412521Y-89325190D02*
X166488711Y-89401380D01*
X166488711Y-89401380D02*
X166526806Y-89477571D01*
X166526806Y-89477571D02*
X166564902Y-89629952D01*
X166564902Y-89629952D02*
X166564902Y-89744238D01*
X166564902Y-89744238D02*
X166526806Y-89896619D01*
X166526806Y-89896619D02*
X166488711Y-89972809D01*
X166488711Y-89972809D02*
X166412521Y-90049000D01*
X166412521Y-90049000D02*
X166298235Y-90087095D01*
X166298235Y-90087095D02*
X166107759Y-90087095D01*
X166869663Y-89858523D02*
X167250616Y-89858523D01*
X166793473Y-90087095D02*
X167060140Y-89287095D01*
X167060140Y-89287095D02*
X167326806Y-90087095D01*
X157662368Y-92766895D02*
X157929035Y-93566895D01*
X157929035Y-93566895D02*
X158195701Y-92766895D01*
X158919511Y-93490704D02*
X158881415Y-93528800D01*
X158881415Y-93528800D02*
X158767130Y-93566895D01*
X158767130Y-93566895D02*
X158690939Y-93566895D01*
X158690939Y-93566895D02*
X158576653Y-93528800D01*
X158576653Y-93528800D02*
X158500463Y-93452609D01*
X158500463Y-93452609D02*
X158462368Y-93376419D01*
X158462368Y-93376419D02*
X158424272Y-93224038D01*
X158424272Y-93224038D02*
X158424272Y-93109752D01*
X158424272Y-93109752D02*
X158462368Y-92957371D01*
X158462368Y-92957371D02*
X158500463Y-92881180D01*
X158500463Y-92881180D02*
X158576653Y-92804990D01*
X158576653Y-92804990D02*
X158690939Y-92766895D01*
X158690939Y-92766895D02*
X158767130Y-92766895D01*
X158767130Y-92766895D02*
X158881415Y-92804990D01*
X158881415Y-92804990D02*
X158919511Y-92843085D01*
X159719511Y-93490704D02*
X159681415Y-93528800D01*
X159681415Y-93528800D02*
X159567130Y-93566895D01*
X159567130Y-93566895D02*
X159490939Y-93566895D01*
X159490939Y-93566895D02*
X159376653Y-93528800D01*
X159376653Y-93528800D02*
X159300463Y-93452609D01*
X159300463Y-93452609D02*
X159262368Y-93376419D01*
X159262368Y-93376419D02*
X159224272Y-93224038D01*
X159224272Y-93224038D02*
X159224272Y-93109752D01*
X159224272Y-93109752D02*
X159262368Y-92957371D01*
X159262368Y-92957371D02*
X159300463Y-92881180D01*
X159300463Y-92881180D02*
X159376653Y-92804990D01*
X159376653Y-92804990D02*
X159490939Y-92766895D01*
X159490939Y-92766895D02*
X159567130Y-92766895D01*
X159567130Y-92766895D02*
X159681415Y-92804990D01*
X159681415Y-92804990D02*
X159719511Y-92843085D01*
X170705254Y-90087095D02*
X170705254Y-89287095D01*
X171086206Y-90087095D02*
X171086206Y-89287095D01*
X171086206Y-89287095D02*
X171543349Y-90087095D01*
X171543349Y-90087095D02*
X171543349Y-89287095D01*
X171810015Y-89287095D02*
X172267158Y-89287095D01*
X172038586Y-90087095D02*
X172038586Y-89287095D01*
X163275701Y-92804990D02*
X163199511Y-92766895D01*
X163199511Y-92766895D02*
X163085225Y-92766895D01*
X163085225Y-92766895D02*
X162970939Y-92804990D01*
X162970939Y-92804990D02*
X162894749Y-92881180D01*
X162894749Y-92881180D02*
X162856654Y-92957371D01*
X162856654Y-92957371D02*
X162818558Y-93109752D01*
X162818558Y-93109752D02*
X162818558Y-93224038D01*
X162818558Y-93224038D02*
X162856654Y-93376419D01*
X162856654Y-93376419D02*
X162894749Y-93452609D01*
X162894749Y-93452609D02*
X162970939Y-93528800D01*
X162970939Y-93528800D02*
X163085225Y-93566895D01*
X163085225Y-93566895D02*
X163161416Y-93566895D01*
X163161416Y-93566895D02*
X163275701Y-93528800D01*
X163275701Y-93528800D02*
X163313797Y-93490704D01*
X163313797Y-93490704D02*
X163313797Y-93224038D01*
X163313797Y-93224038D02*
X163161416Y-93224038D01*
X163656654Y-93566895D02*
X163656654Y-92766895D01*
X163656654Y-92766895D02*
X164113797Y-93566895D01*
X164113797Y-93566895D02*
X164113797Y-92766895D01*
X164494749Y-93566895D02*
X164494749Y-92766895D01*
X164494749Y-92766895D02*
X164685225Y-92766895D01*
X164685225Y-92766895D02*
X164799511Y-92804990D01*
X164799511Y-92804990D02*
X164875701Y-92881180D01*
X164875701Y-92881180D02*
X164913796Y-92957371D01*
X164913796Y-92957371D02*
X164951892Y-93109752D01*
X164951892Y-93109752D02*
X164951892Y-93224038D01*
X164951892Y-93224038D02*
X164913796Y-93376419D01*
X164913796Y-93376419D02*
X164875701Y-93452609D01*
X164875701Y-93452609D02*
X164799511Y-93528800D01*
X164799511Y-93528800D02*
X164685225Y-93566895D01*
X164685225Y-93566895D02*
X164494749Y-93566895D01*
X159376854Y-89756933D02*
X159986378Y-89756933D01*
X159681616Y-90061695D02*
X159681616Y-89452171D01*
X160291139Y-89261695D02*
X160786377Y-89261695D01*
X160786377Y-89261695D02*
X160519711Y-89566457D01*
X160519711Y-89566457D02*
X160633996Y-89566457D01*
X160633996Y-89566457D02*
X160710187Y-89604552D01*
X160710187Y-89604552D02*
X160748282Y-89642647D01*
X160748282Y-89642647D02*
X160786377Y-89718838D01*
X160786377Y-89718838D02*
X160786377Y-89909314D01*
X160786377Y-89909314D02*
X160748282Y-89985504D01*
X160748282Y-89985504D02*
X160710187Y-90023600D01*
X160710187Y-90023600D02*
X160633996Y-90061695D01*
X160633996Y-90061695D02*
X160405425Y-90061695D01*
X160405425Y-90061695D02*
X160329234Y-90023600D01*
X160329234Y-90023600D02*
X160291139Y-89985504D01*
X161129235Y-89985504D02*
X161167330Y-90023600D01*
X161167330Y-90023600D02*
X161129235Y-90061695D01*
X161129235Y-90061695D02*
X161091139Y-90023600D01*
X161091139Y-90023600D02*
X161129235Y-89985504D01*
X161129235Y-89985504D02*
X161129235Y-90061695D01*
X161433996Y-89261695D02*
X161929234Y-89261695D01*
X161929234Y-89261695D02*
X161662568Y-89566457D01*
X161662568Y-89566457D02*
X161776853Y-89566457D01*
X161776853Y-89566457D02*
X161853044Y-89604552D01*
X161853044Y-89604552D02*
X161891139Y-89642647D01*
X161891139Y-89642647D02*
X161929234Y-89718838D01*
X161929234Y-89718838D02*
X161929234Y-89909314D01*
X161929234Y-89909314D02*
X161891139Y-89985504D01*
X161891139Y-89985504D02*
X161853044Y-90023600D01*
X161853044Y-90023600D02*
X161776853Y-90061695D01*
X161776853Y-90061695D02*
X161548282Y-90061695D01*
X161548282Y-90061695D02*
X161472091Y-90023600D01*
X161472091Y-90023600D02*
X161433996Y-89985504D01*
X162157806Y-89261695D02*
X162424473Y-90061695D01*
X162424473Y-90061695D02*
X162691139Y-89261695D01*
X167949358Y-93554200D02*
X168063644Y-93592295D01*
X168063644Y-93592295D02*
X168254120Y-93592295D01*
X168254120Y-93592295D02*
X168330311Y-93554200D01*
X168330311Y-93554200D02*
X168368406Y-93516104D01*
X168368406Y-93516104D02*
X168406501Y-93439914D01*
X168406501Y-93439914D02*
X168406501Y-93363723D01*
X168406501Y-93363723D02*
X168368406Y-93287533D01*
X168368406Y-93287533D02*
X168330311Y-93249438D01*
X168330311Y-93249438D02*
X168254120Y-93211342D01*
X168254120Y-93211342D02*
X168101739Y-93173247D01*
X168101739Y-93173247D02*
X168025549Y-93135152D01*
X168025549Y-93135152D02*
X167987454Y-93097057D01*
X167987454Y-93097057D02*
X167949358Y-93020866D01*
X167949358Y-93020866D02*
X167949358Y-92944676D01*
X167949358Y-92944676D02*
X167987454Y-92868485D01*
X167987454Y-92868485D02*
X168025549Y-92830390D01*
X168025549Y-92830390D02*
X168101739Y-92792295D01*
X168101739Y-92792295D02*
X168292216Y-92792295D01*
X168292216Y-92792295D02*
X168406501Y-92830390D01*
X169206502Y-93516104D02*
X169168406Y-93554200D01*
X169168406Y-93554200D02*
X169054121Y-93592295D01*
X169054121Y-93592295D02*
X168977930Y-93592295D01*
X168977930Y-93592295D02*
X168863644Y-93554200D01*
X168863644Y-93554200D02*
X168787454Y-93478009D01*
X168787454Y-93478009D02*
X168749359Y-93401819D01*
X168749359Y-93401819D02*
X168711263Y-93249438D01*
X168711263Y-93249438D02*
X168711263Y-93135152D01*
X168711263Y-93135152D02*
X168749359Y-92982771D01*
X168749359Y-92982771D02*
X168787454Y-92906580D01*
X168787454Y-92906580D02*
X168863644Y-92830390D01*
X168863644Y-92830390D02*
X168977930Y-92792295D01*
X168977930Y-92792295D02*
X169054121Y-92792295D01*
X169054121Y-92792295D02*
X169168406Y-92830390D01*
X169168406Y-92830390D02*
X169206502Y-92868485D01*
X169930311Y-93592295D02*
X169549359Y-93592295D01*
X169549359Y-93592295D02*
X169549359Y-92792295D01*
D11*
X170687999Y-88276780D02*
X170687999Y-88038685D01*
X170926094Y-88133923D02*
X170687999Y-88038685D01*
X170687999Y-88038685D02*
X170449904Y-88133923D01*
X170830856Y-87848209D02*
X170687999Y-88038685D01*
X170687999Y-88038685D02*
X170545142Y-87848209D01*
D12*
%TO.C,C4*%
X165816233Y-82624200D02*
X166108767Y-82624200D01*
X165816233Y-83644200D02*
X166108767Y-83644200D01*
%TO.C,C3*%
X162799500Y-83795776D02*
X162799500Y-84305224D01*
X163844500Y-83795776D02*
X163844500Y-84305224D01*
D13*
%TO.C,U2*%
X165972200Y-86097400D02*
X163872200Y-86097400D01*
X165972200Y-88197400D02*
X163872200Y-88197400D01*
D10*
X166822200Y-87847400D02*
G75*
G02*
X166622200Y-87847400I-100000J0D01*
G01*
X166622200Y-87847400D02*
G75*
G02*
X166822200Y-87847400I100000J0D01*
G01*
D12*
%TO.C,J2*%
X152991600Y-83150000D02*
X152991600Y-87030000D01*
X154961600Y-81980000D02*
X157461600Y-81980000D01*
X154961600Y-88200000D02*
X157461600Y-88200000D01*
X157461600Y-81980000D02*
X157461600Y-83030000D01*
X157461600Y-83030000D02*
X158451600Y-83030000D01*
X157461600Y-88200000D02*
X157461600Y-87150000D01*
%TO.C,R2*%
X170673500Y-78967876D02*
X170673500Y-79477324D01*
X171718500Y-78967876D02*
X171718500Y-79477324D01*
D14*
%TO.C,Q1*%
X168440100Y-87718900D02*
X170040300Y-87718900D01*
X170040300Y-85255100D02*
X168440100Y-85255100D01*
D12*
%TO.C,C1*%
X160647748Y-86996600D02*
X161170252Y-86996600D01*
X160647748Y-88466600D02*
X161170252Y-88466600D01*
%TO.C,J3*%
X172738400Y-81980000D02*
X172738400Y-83030000D01*
X172738400Y-87150000D02*
X171748400Y-87150000D01*
X172738400Y-88200000D02*
X172738400Y-87150000D01*
X175238400Y-81980000D02*
X172738400Y-81980000D01*
X175238400Y-88200000D02*
X172738400Y-88200000D01*
X177208400Y-87030000D02*
X177208400Y-83150000D01*
%TO.C,R5*%
X164577500Y-78967876D02*
X164577500Y-79477324D01*
X165622500Y-78967876D02*
X165622500Y-79477324D01*
%TO.C,R4*%
X166101500Y-78967876D02*
X166101500Y-79477324D01*
X167146500Y-78967876D02*
X167146500Y-79477324D01*
%TO.C,R1*%
X169149500Y-78967876D02*
X169149500Y-79477324D01*
X170194500Y-78967876D02*
X170194500Y-79477324D01*
%TO.C,C2*%
X160647748Y-80037000D02*
X161170252Y-80037000D01*
X160647748Y-81507000D02*
X161170252Y-81507000D01*
%TO.C,U1*%
X159171200Y-84576500D02*
X159171200Y-83776500D01*
X159171200Y-84576500D02*
X159171200Y-85376500D01*
X162291200Y-84576500D02*
X162291200Y-83776500D01*
X162291200Y-84576500D02*
X162291200Y-85376500D01*
X159221200Y-85876500D02*
X158891200Y-86116500D01*
X158891200Y-85636500D01*
X159221200Y-85876500D01*
G36*
X159221200Y-85876500D02*
G01*
X158891200Y-86116500D01*
X158891200Y-85636500D01*
X159221200Y-85876500D01*
G37*
%TO.C,R3*%
X167625500Y-78967876D02*
X167625500Y-79477324D01*
X168670500Y-78967876D02*
X168670500Y-79477324D01*
%TD*%
M02*
