%TF.GenerationSoftware,KiCad,Pcbnew,8.0.1*%
%TF.CreationDate,2024-04-26T21:14:53-06:00*%
%TF.ProjectId,apds-9306-sensor,61706473-2d39-4333-9036-2d73656e736f,rev?*%
%TF.SameCoordinates,Original*%
%TF.FileFunction,Soldermask,Top*%
%TF.FilePolarity,Negative*%
%FSLAX46Y46*%
G04 Gerber Fmt 4.6, Leading zero omitted, Abs format (unit mm)*
G04 Created by KiCad (PCBNEW 8.0.1) date 2024-04-26 21:14:53*
%MOMM*%
%LPD*%
G01*
G04 APERTURE LIST*
G04 Aperture macros list*
%AMRoundRect*
0 Rectangle with rounded corners*
0 $1 Rounding radius*
0 $2 $3 $4 $5 $6 $7 $8 $9 X,Y pos of 4 corners*
0 Add a 4 corners polygon primitive as box body*
4,1,4,$2,$3,$4,$5,$6,$7,$8,$9,$2,$3,0*
0 Add four circle primitives for the rounded corners*
1,1,$1+$1,$2,$3*
1,1,$1+$1,$4,$5*
1,1,$1+$1,$6,$7*
1,1,$1+$1,$8,$9*
0 Add four rect primitives between the rounded corners*
20,1,$1+$1,$2,$3,$4,$5,0*
20,1,$1+$1,$4,$5,$6,$7,0*
20,1,$1+$1,$6,$7,$8,$9,0*
20,1,$1+$1,$8,$9,$2,$3,0*%
G04 Aperture macros list end*
%ADD10RoundRect,0.237500X-0.300000X-0.237500X0.300000X-0.237500X0.300000X0.237500X-0.300000X0.237500X0*%
%ADD11RoundRect,0.237500X-0.237500X0.250000X-0.237500X-0.250000X0.237500X-0.250000X0.237500X0.250000X0*%
%ADD12RoundRect,0.041920X0.680080X0.220080X-0.680080X0.220080X-0.680080X-0.220080X0.680080X-0.220080X0*%
%ADD13C,3.500000*%
%ADD14RoundRect,0.150000X-0.625000X0.150000X-0.625000X-0.150000X0.625000X-0.150000X0.625000X0.150000X0*%
%ADD15RoundRect,0.250000X-0.650000X0.350000X-0.650000X-0.350000X0.650000X-0.350000X0.650000X0.350000X0*%
%ADD16R,0.787400X0.355600*%
%ADD17RoundRect,0.250000X-0.337500X-0.475000X0.337500X-0.475000X0.337500X0.475000X-0.337500X0.475000X0*%
%ADD18RoundRect,0.150000X0.625000X-0.150000X0.625000X0.150000X-0.625000X0.150000X-0.625000X-0.150000X0*%
%ADD19RoundRect,0.250000X0.650000X-0.350000X0.650000X0.350000X-0.650000X0.350000X-0.650000X-0.350000X0*%
%ADD20RoundRect,0.150000X0.150000X-0.512500X0.150000X0.512500X-0.150000X0.512500X-0.150000X-0.512500X0*%
%ADD21R,1.700000X1.700000*%
%ADD22O,1.700000X1.700000*%
G04 APERTURE END LIST*
D10*
%TO.C,C4*%
X165100000Y-83134200D03*
X166825000Y-83134200D03*
%TD*%
D11*
%TO.C,C3*%
X163322000Y-83138000D03*
X163322000Y-84963000D03*
%TD*%
D12*
%TO.C,U2*%
X165667200Y-87797400D03*
X165667200Y-87147400D03*
X165667200Y-86497400D03*
X164177200Y-86497400D03*
X164177200Y-87147400D03*
X164177200Y-87797400D03*
%TD*%
D13*
%TO.C,H1*%
X175260000Y-78740000D03*
%TD*%
D14*
%TO.C,J2*%
X157676600Y-83590000D03*
X157676600Y-84590000D03*
X157676600Y-85590000D03*
X157676600Y-86590000D03*
D15*
X153801600Y-82290000D03*
X153801600Y-87890000D03*
%TD*%
D11*
%TO.C,R2*%
X171196000Y-78310100D03*
X171196000Y-80135100D03*
%TD*%
D16*
%TO.C,Q1*%
X170307000Y-87136999D03*
X170307000Y-86487000D03*
X170307000Y-85837001D03*
X168173400Y-85837001D03*
X168173400Y-86487000D03*
X168173400Y-87136999D03*
%TD*%
D17*
%TO.C,C1*%
X159871500Y-87731600D03*
X161946500Y-87731600D03*
%TD*%
D18*
%TO.C,J3*%
X172523400Y-86590000D03*
X172523400Y-85590000D03*
X172523400Y-84590000D03*
X172523400Y-83590000D03*
D19*
X176398400Y-87890000D03*
X176398400Y-82290000D03*
%TD*%
D11*
%TO.C,R5*%
X165100000Y-78310100D03*
X165100000Y-80135100D03*
%TD*%
D13*
%TO.C,H4*%
X154940000Y-91440000D03*
%TD*%
%TO.C,H3*%
X175260000Y-91440000D03*
%TD*%
D11*
%TO.C,R4*%
X166624000Y-78310100D03*
X166624000Y-80135100D03*
%TD*%
%TO.C,R1*%
X169672000Y-78310100D03*
X169672000Y-80135100D03*
%TD*%
D17*
%TO.C,C2*%
X159871500Y-80772000D03*
X161946500Y-80772000D03*
%TD*%
D20*
%TO.C,U1*%
X159781200Y-85714000D03*
X160731200Y-85714000D03*
X161681200Y-85714000D03*
X161681200Y-83439000D03*
X159781200Y-83439000D03*
%TD*%
D11*
%TO.C,R3*%
X168148000Y-78310100D03*
X168148000Y-80135100D03*
%TD*%
D13*
%TO.C,H2*%
X154940000Y-78740000D03*
%TD*%
D21*
%TO.C,J1*%
X158750000Y-91669000D03*
D22*
X161290000Y-91669000D03*
X163830000Y-91669000D03*
X166370000Y-91669000D03*
X168910000Y-91669000D03*
X171450000Y-91669000D03*
%TD*%
M02*
