%TF.GenerationSoftware,KiCad,Pcbnew,8.0.1*%
%TF.CreationDate,2024-04-26T21:14:53-06:00*%
%TF.ProjectId,apds-9306-sensor,61706473-2d39-4333-9036-2d73656e736f,rev?*%
%TF.SameCoordinates,Original*%
%TF.FileFunction,Copper,L2,Bot*%
%TF.FilePolarity,Positive*%
%FSLAX46Y46*%
G04 Gerber Fmt 4.6, Leading zero omitted, Abs format (unit mm)*
G04 Created by KiCad (PCBNEW 8.0.1) date 2024-04-26 21:14:53*
%MOMM*%
%LPD*%
G01*
G04 APERTURE LIST*
%TA.AperFunction,ComponentPad*%
%ADD10C,3.500000*%
%TD*%
%TA.AperFunction,ComponentPad*%
%ADD11R,1.700000X1.700000*%
%TD*%
%TA.AperFunction,ComponentPad*%
%ADD12O,1.700000X1.700000*%
%TD*%
%TA.AperFunction,ViaPad*%
%ADD13C,0.800000*%
%TD*%
%TA.AperFunction,ViaPad*%
%ADD14C,0.600000*%
%TD*%
%TA.AperFunction,Conductor*%
%ADD15C,0.300000*%
%TD*%
%TA.AperFunction,Conductor*%
%ADD16C,0.400000*%
%TD*%
G04 APERTURE END LIST*
D10*
%TO.P,H1,1*%
%TO.N,GND*%
X175260000Y-78740000D03*
%TD*%
%TO.P,H4,1*%
%TO.N,GND*%
X154940000Y-91440000D03*
%TD*%
%TO.P,H3,1*%
%TO.N,GND*%
X175260000Y-91440000D03*
%TD*%
%TO.P,H2,1*%
%TO.N,GND*%
X154940000Y-78740000D03*
%TD*%
D11*
%TO.P,J1,1,Pin_1*%
%TO.N,VCC*%
X158750000Y-91669000D03*
D12*
%TO.P,J1,2,Pin_2*%
%TO.N,+3.3V*%
X161290000Y-91669000D03*
%TO.P,J1,3,Pin_3*%
%TO.N,GND*%
X163830000Y-91669000D03*
%TO.P,J1,4,Pin_4*%
%TO.N,/SDA*%
X166370000Y-91669000D03*
%TO.P,J1,5,Pin_5*%
%TO.N,/SCL*%
X168910000Y-91669000D03*
%TO.P,J1,6,Pin_6*%
%TO.N,/INTR*%
X171450000Y-91669000D03*
%TD*%
D13*
%TO.N,VCC*%
X158521400Y-87782400D03*
X172669200Y-78333600D03*
X155778200Y-84582000D03*
D14*
%TO.N,GND*%
X153314400Y-80822800D03*
X153416000Y-89230200D03*
D13*
X163576000Y-80314800D03*
D14*
X156845000Y-92938600D03*
X173304200Y-77165200D03*
X176606200Y-85648800D03*
X176809400Y-80619600D03*
X162902900Y-86017100D03*
X170688000Y-82550000D03*
X174294800Y-88671400D03*
X176555400Y-84023200D03*
X157505400Y-77343000D03*
X153822400Y-84251800D03*
X155397200Y-88544400D03*
X173024800Y-92786200D03*
X157556200Y-82296000D03*
X153797000Y-86004400D03*
D13*
X160985200Y-88747600D03*
%TO.N,+3.3V*%
X163322000Y-82194400D03*
D14*
%TO.N,/SDA*%
X171297600Y-84607400D03*
X169672000Y-81432400D03*
X169214800Y-87137000D03*
%TO.N,/SCL_3V*%
X168122600Y-87814801D03*
X168148000Y-81635600D03*
%TO.N,/SDA_3V*%
X167005000Y-87147400D03*
X166624000Y-81686400D03*
X167005000Y-85847400D03*
%TO.N,/SCL*%
X174242600Y-83590000D03*
%TO.N,/INTR*%
X164566600Y-84810600D03*
X165252400Y-88722200D03*
X165100000Y-81610200D03*
%TD*%
D15*
%TO.N,/SDA*%
X169214800Y-87137000D02*
X169214800Y-81889600D01*
X169214800Y-81889600D02*
X169672000Y-81432400D01*
D16*
%TO.N,VCC*%
X155778200Y-81635600D02*
X155778200Y-84582000D01*
X158521400Y-91440400D02*
X158750000Y-91669000D01*
X172415200Y-78587600D02*
X158826200Y-78587600D01*
X172669200Y-78333600D02*
X172415200Y-78587600D01*
X158826200Y-78587600D02*
X155778200Y-81635600D01*
X158521400Y-87782400D02*
X158521400Y-91440400D01*
%TO.N,+3.3V*%
X163855400Y-89103600D02*
X161290000Y-91669000D01*
X163855400Y-82727800D02*
X163855400Y-89103600D01*
X163322000Y-82194400D02*
X163855400Y-82727800D01*
D15*
%TO.N,/SDA*%
X166370000Y-91669000D02*
X166699800Y-91669000D01*
X171297600Y-88265000D02*
X171297600Y-84607400D01*
X168579800Y-89789000D02*
X169773600Y-89789000D01*
X169773600Y-89789000D02*
X171297600Y-88265000D01*
X166699800Y-91669000D02*
X168579800Y-89789000D01*
%TO.N,/SCL_3V*%
X168148000Y-81635600D02*
X168148000Y-87789401D01*
X168148000Y-87789401D02*
X168122600Y-87814801D01*
%TO.N,/SDA_3V*%
X166624000Y-81686400D02*
X166624000Y-85466400D01*
X167005000Y-85847400D02*
X167005000Y-87147400D01*
X166624000Y-85466400D02*
X167005000Y-85847400D01*
%TO.N,/SCL*%
X174242600Y-83590000D02*
X174242600Y-86945600D01*
X169519200Y-91669000D02*
X168910000Y-91669000D01*
X174242600Y-86945600D02*
X169519200Y-91669000D01*
%TO.N,/INTR*%
X165100000Y-84277200D02*
X165100000Y-81610200D01*
X164566600Y-84810600D02*
X165328600Y-85572600D01*
X165328600Y-85572600D02*
X165328600Y-88646000D01*
X164566600Y-84810600D02*
X165100000Y-84277200D01*
X165328600Y-88646000D02*
X165252400Y-88722200D01*
%TD*%
%TA.AperFunction,Conductor*%
%TO.N,GND*%
G36*
X175264042Y-76700765D02*
G01*
X175285151Y-76702148D01*
X175518116Y-76717417D01*
X175534172Y-76719532D01*
X175722268Y-76756946D01*
X175784176Y-76789330D01*
X175785755Y-76790881D01*
X177209117Y-78214243D01*
X177242602Y-78275566D01*
X177243053Y-78277733D01*
X177280465Y-78465814D01*
X177282583Y-78481895D01*
X177299235Y-78735956D01*
X177299500Y-78744066D01*
X177299500Y-91435933D01*
X177299235Y-91444043D01*
X177282583Y-91698104D01*
X177280465Y-91714186D01*
X177243053Y-91902266D01*
X177210668Y-91964177D01*
X177209117Y-91965755D01*
X175785755Y-93389117D01*
X175724432Y-93422602D01*
X175722266Y-93423053D01*
X175534186Y-93460465D01*
X175518104Y-93462583D01*
X175264043Y-93479235D01*
X175255933Y-93479500D01*
X154944067Y-93479500D01*
X154935957Y-93479235D01*
X154681895Y-93462583D01*
X154665814Y-93460465D01*
X154477733Y-93423053D01*
X154415822Y-93390668D01*
X154414243Y-93389117D01*
X152990881Y-91965755D01*
X152957396Y-91904432D01*
X152956970Y-91902389D01*
X152919532Y-91714172D01*
X152917417Y-91698116D01*
X152906948Y-91538377D01*
X153690000Y-91538377D01*
X153720779Y-91732709D01*
X153781580Y-91919833D01*
X153870904Y-92095143D01*
X153986554Y-92254320D01*
X154125680Y-92393446D01*
X154284857Y-92509096D01*
X154460167Y-92598420D01*
X154647291Y-92659221D01*
X154841623Y-92690000D01*
X155038377Y-92690000D01*
X155232709Y-92659221D01*
X155419833Y-92598420D01*
X155481754Y-92566870D01*
X157399500Y-92566870D01*
X157399501Y-92566876D01*
X157405908Y-92626483D01*
X157456202Y-92761328D01*
X157456206Y-92761335D01*
X157542452Y-92876544D01*
X157542455Y-92876547D01*
X157657664Y-92962793D01*
X157657671Y-92962797D01*
X157792517Y-93013091D01*
X157792516Y-93013091D01*
X157799444Y-93013835D01*
X157852127Y-93019500D01*
X159647872Y-93019499D01*
X159707483Y-93013091D01*
X159842331Y-92962796D01*
X159957546Y-92876546D01*
X160043796Y-92761331D01*
X160092810Y-92629916D01*
X160134681Y-92573984D01*
X160200145Y-92549566D01*
X160268418Y-92564417D01*
X160296673Y-92585569D01*
X160418599Y-92707495D01*
X160515384Y-92775265D01*
X160612165Y-92843032D01*
X160612167Y-92843033D01*
X160612170Y-92843035D01*
X160826337Y-92942903D01*
X161054592Y-93004063D01*
X161231034Y-93019500D01*
X161289999Y-93024659D01*
X161290000Y-93024659D01*
X161290001Y-93024659D01*
X161348966Y-93019500D01*
X161525408Y-93004063D01*
X161753663Y-92942903D01*
X161967830Y-92843035D01*
X162161401Y-92707495D01*
X162328495Y-92540401D01*
X162458730Y-92354405D01*
X162513307Y-92310781D01*
X162582805Y-92303587D01*
X162645160Y-92335110D01*
X162661879Y-92354405D01*
X162791890Y-92540078D01*
X162958917Y-92707105D01*
X163152421Y-92842600D01*
X163366507Y-92942429D01*
X163366516Y-92942433D01*
X163580000Y-92999634D01*
X163580000Y-92102012D01*
X163637007Y-92134925D01*
X163764174Y-92169000D01*
X163895826Y-92169000D01*
X164022993Y-92134925D01*
X164080000Y-92102012D01*
X164080000Y-92999633D01*
X164293483Y-92942433D01*
X164293492Y-92942429D01*
X164507578Y-92842600D01*
X164701082Y-92707105D01*
X164868105Y-92540082D01*
X164998119Y-92354405D01*
X165052696Y-92310781D01*
X165122195Y-92303588D01*
X165184549Y-92335110D01*
X165201269Y-92354405D01*
X165331505Y-92540401D01*
X165498599Y-92707495D01*
X165595384Y-92775265D01*
X165692165Y-92843032D01*
X165692167Y-92843033D01*
X165692170Y-92843035D01*
X165906337Y-92942903D01*
X166134592Y-93004063D01*
X166311034Y-93019500D01*
X166369999Y-93024659D01*
X166370000Y-93024659D01*
X166370001Y-93024659D01*
X166428966Y-93019500D01*
X166605408Y-93004063D01*
X166833663Y-92942903D01*
X167047830Y-92843035D01*
X167241401Y-92707495D01*
X167408495Y-92540401D01*
X167538425Y-92354842D01*
X167593002Y-92311217D01*
X167662500Y-92304023D01*
X167724855Y-92335546D01*
X167741575Y-92354842D01*
X167871500Y-92540395D01*
X167871505Y-92540401D01*
X168038599Y-92707495D01*
X168135384Y-92775265D01*
X168232165Y-92843032D01*
X168232167Y-92843033D01*
X168232170Y-92843035D01*
X168446337Y-92942903D01*
X168674592Y-93004063D01*
X168851034Y-93019500D01*
X168909999Y-93024659D01*
X168910000Y-93024659D01*
X168910001Y-93024659D01*
X168968966Y-93019500D01*
X169145408Y-93004063D01*
X169373663Y-92942903D01*
X169587830Y-92843035D01*
X169781401Y-92707495D01*
X169948495Y-92540401D01*
X170078425Y-92354842D01*
X170133002Y-92311217D01*
X170202500Y-92304023D01*
X170264855Y-92335546D01*
X170281575Y-92354842D01*
X170411500Y-92540395D01*
X170411505Y-92540401D01*
X170578599Y-92707495D01*
X170675384Y-92775265D01*
X170772165Y-92843032D01*
X170772167Y-92843033D01*
X170772170Y-92843035D01*
X170986337Y-92942903D01*
X171214592Y-93004063D01*
X171391034Y-93019500D01*
X171449999Y-93024659D01*
X171450000Y-93024659D01*
X171450001Y-93024659D01*
X171508966Y-93019500D01*
X171685408Y-93004063D01*
X171913663Y-92942903D01*
X172127830Y-92843035D01*
X172321401Y-92707495D01*
X172488495Y-92540401D01*
X172624035Y-92346830D01*
X172723903Y-92132663D01*
X172785063Y-91904408D01*
X172805659Y-91669000D01*
X172794231Y-91538377D01*
X174010000Y-91538377D01*
X174040779Y-91732709D01*
X174101580Y-91919833D01*
X174190904Y-92095143D01*
X174306554Y-92254320D01*
X174445680Y-92393446D01*
X174604857Y-92509096D01*
X174780167Y-92598420D01*
X174967291Y-92659221D01*
X175161623Y-92690000D01*
X175358377Y-92690000D01*
X175552709Y-92659221D01*
X175739833Y-92598420D01*
X175915143Y-92509096D01*
X176074320Y-92393446D01*
X176213446Y-92254320D01*
X176329096Y-92095143D01*
X176418420Y-91919833D01*
X176479221Y-91732709D01*
X176510000Y-91538377D01*
X176510000Y-91341623D01*
X176479221Y-91147291D01*
X176418420Y-90960167D01*
X176329096Y-90784857D01*
X176213446Y-90625680D01*
X176074320Y-90486554D01*
X175915143Y-90370904D01*
X175739833Y-90281580D01*
X175552709Y-90220779D01*
X175358377Y-90190000D01*
X175161623Y-90190000D01*
X174967291Y-90220779D01*
X174780167Y-90281580D01*
X174604857Y-90370904D01*
X174445680Y-90486554D01*
X174306554Y-90625680D01*
X174190904Y-90784857D01*
X174101580Y-90960167D01*
X174040779Y-91147291D01*
X174010000Y-91341623D01*
X174010000Y-91538377D01*
X172794231Y-91538377D01*
X172785063Y-91433592D01*
X172723903Y-91205337D01*
X172624035Y-90991171D01*
X172618731Y-90983595D01*
X172488494Y-90797597D01*
X172321402Y-90630506D01*
X172321395Y-90630501D01*
X172127834Y-90494967D01*
X172127831Y-90494965D01*
X172127830Y-90494965D01*
X172049207Y-90458302D01*
X171937344Y-90406139D01*
X171884905Y-90359966D01*
X171865753Y-90292773D01*
X171885969Y-90225892D01*
X171902063Y-90206081D01*
X174747876Y-87360270D01*
X174786792Y-87302028D01*
X174819064Y-87253729D01*
X174820532Y-87250185D01*
X174868101Y-87135344D01*
X174878732Y-87081900D01*
X174893100Y-87009669D01*
X174893100Y-84095067D01*
X174912107Y-84029094D01*
X174968388Y-83939524D01*
X174988653Y-83881611D01*
X175027968Y-83769255D01*
X175048165Y-83590000D01*
X175027968Y-83410745D01*
X174968389Y-83240478D01*
X174872416Y-83087738D01*
X174744862Y-82960184D01*
X174592123Y-82864211D01*
X174421854Y-82804631D01*
X174421849Y-82804630D01*
X174242604Y-82784435D01*
X174242596Y-82784435D01*
X174063350Y-82804630D01*
X174063345Y-82804631D01*
X173893076Y-82864211D01*
X173740337Y-82960184D01*
X173612784Y-83087737D01*
X173516811Y-83240476D01*
X173457231Y-83410745D01*
X173457230Y-83410750D01*
X173437035Y-83589996D01*
X173437035Y-83590003D01*
X173457230Y-83769249D01*
X173457231Y-83769254D01*
X173516811Y-83939524D01*
X173573093Y-84029094D01*
X173592100Y-84095067D01*
X173592100Y-86624792D01*
X173572415Y-86691831D01*
X173555781Y-86712473D01*
X172159781Y-88108473D01*
X172098458Y-88141958D01*
X172028766Y-88136974D01*
X171972833Y-88095102D01*
X171948416Y-88029638D01*
X171948100Y-88020792D01*
X171948100Y-85112467D01*
X171967107Y-85046494D01*
X172023388Y-84956924D01*
X172023389Y-84956922D01*
X172082968Y-84786655D01*
X172082969Y-84786649D01*
X172103165Y-84607403D01*
X172103165Y-84607396D01*
X172082969Y-84428150D01*
X172082968Y-84428145D01*
X172059902Y-84362226D01*
X172023389Y-84257878D01*
X171927416Y-84105138D01*
X171799862Y-83977584D01*
X171739287Y-83939522D01*
X171647123Y-83881611D01*
X171476854Y-83822031D01*
X171476849Y-83822030D01*
X171297604Y-83801835D01*
X171297596Y-83801835D01*
X171118350Y-83822030D01*
X171118345Y-83822031D01*
X170948076Y-83881611D01*
X170795337Y-83977584D01*
X170667784Y-84105137D01*
X170571811Y-84257876D01*
X170512231Y-84428145D01*
X170512230Y-84428150D01*
X170492035Y-84607396D01*
X170492035Y-84607403D01*
X170512230Y-84786649D01*
X170512231Y-84786654D01*
X170571811Y-84956924D01*
X170628093Y-85046494D01*
X170647100Y-85112467D01*
X170647100Y-87944192D01*
X170627415Y-88011231D01*
X170610781Y-88031873D01*
X169540473Y-89102181D01*
X169479150Y-89135666D01*
X169452792Y-89138500D01*
X168515729Y-89138500D01*
X168390061Y-89163497D01*
X168390055Y-89163499D01*
X168271670Y-89212535D01*
X168165131Y-89283722D01*
X168165124Y-89283728D01*
X167045158Y-90403694D01*
X166983835Y-90437179D01*
X166914143Y-90432195D01*
X166905073Y-90428396D01*
X166887039Y-90419986D01*
X166833663Y-90395097D01*
X166833660Y-90395096D01*
X166833655Y-90395094D01*
X166605413Y-90333938D01*
X166605403Y-90333936D01*
X166370001Y-90313341D01*
X166369999Y-90313341D01*
X166134596Y-90333936D01*
X166134586Y-90333938D01*
X165906344Y-90395094D01*
X165906335Y-90395098D01*
X165692171Y-90494964D01*
X165692169Y-90494965D01*
X165498597Y-90630505D01*
X165331508Y-90797594D01*
X165201269Y-90983595D01*
X165146692Y-91027219D01*
X165077193Y-91034412D01*
X165014839Y-91002890D01*
X164998119Y-90983594D01*
X164868113Y-90797926D01*
X164868108Y-90797920D01*
X164701082Y-90630894D01*
X164507578Y-90495399D01*
X164293492Y-90395570D01*
X164293486Y-90395567D01*
X164080000Y-90338364D01*
X164080000Y-91235988D01*
X164022993Y-91203075D01*
X163895826Y-91169000D01*
X163764174Y-91169000D01*
X163637007Y-91203075D01*
X163580000Y-91235988D01*
X163580000Y-90421018D01*
X163599685Y-90353979D01*
X163616319Y-90333337D01*
X164399507Y-89550149D01*
X164399513Y-89550143D01*
X164445798Y-89480874D01*
X164476175Y-89435411D01*
X164509826Y-89354168D01*
X164553664Y-89299770D01*
X164619958Y-89277704D01*
X164687657Y-89294983D01*
X164712066Y-89313944D01*
X164750138Y-89352016D01*
X164902878Y-89447989D01*
X164996858Y-89480874D01*
X165073145Y-89507568D01*
X165073150Y-89507569D01*
X165252396Y-89527765D01*
X165252400Y-89527765D01*
X165252404Y-89527765D01*
X165431649Y-89507569D01*
X165431652Y-89507568D01*
X165431655Y-89507568D01*
X165601922Y-89447989D01*
X165754662Y-89352016D01*
X165882216Y-89224462D01*
X165978189Y-89071722D01*
X166037768Y-88901455D01*
X166037769Y-88901449D01*
X166057965Y-88722203D01*
X166057965Y-88722196D01*
X166037769Y-88542950D01*
X166037768Y-88542945D01*
X165986058Y-88395166D01*
X165979100Y-88354211D01*
X165979100Y-87369067D01*
X165998785Y-87302028D01*
X166051589Y-87256273D01*
X166120747Y-87246329D01*
X166184303Y-87275354D01*
X166220142Y-87328112D01*
X166279211Y-87496923D01*
X166368649Y-87639262D01*
X166375184Y-87649662D01*
X166502738Y-87777216D01*
X166593080Y-87833982D01*
X166638926Y-87862789D01*
X166655478Y-87873189D01*
X166815411Y-87929152D01*
X166825745Y-87932768D01*
X166825750Y-87932769D01*
X167004996Y-87952965D01*
X167005000Y-87952965D01*
X167005004Y-87952965D01*
X167184246Y-87932769D01*
X167184245Y-87932769D01*
X167184255Y-87932768D01*
X167184384Y-87932722D01*
X167184471Y-87932718D01*
X167191039Y-87931219D01*
X167191301Y-87932368D01*
X167254158Y-87929152D01*
X167314790Y-87963872D01*
X167342391Y-88008804D01*
X167396809Y-88164320D01*
X167396811Y-88164323D01*
X167492784Y-88317063D01*
X167620338Y-88444617D01*
X167773078Y-88540590D01*
X167943345Y-88600169D01*
X167943350Y-88600170D01*
X168122596Y-88620366D01*
X168122600Y-88620366D01*
X168122604Y-88620366D01*
X168301849Y-88600170D01*
X168301852Y-88600169D01*
X168301855Y-88600169D01*
X168472122Y-88540590D01*
X168624862Y-88444617D01*
X168752416Y-88317063D01*
X168848389Y-88164323D01*
X168904280Y-88004593D01*
X168945000Y-87947820D01*
X169009953Y-87922072D01*
X169035204Y-87922330D01*
X169214796Y-87942565D01*
X169214800Y-87942565D01*
X169214804Y-87942565D01*
X169394049Y-87922369D01*
X169394052Y-87922368D01*
X169394055Y-87922368D01*
X169564322Y-87862789D01*
X169717062Y-87766816D01*
X169844616Y-87639262D01*
X169940589Y-87486522D01*
X170000168Y-87316255D01*
X170001771Y-87302028D01*
X170020365Y-87137003D01*
X170020365Y-87136996D01*
X170000169Y-86957750D01*
X170000166Y-86957737D01*
X169940590Y-86787481D01*
X169940589Y-86787478D01*
X169918808Y-86752814D01*
X169884306Y-86697903D01*
X169865300Y-86631931D01*
X169865300Y-82300836D01*
X169884985Y-82233797D01*
X169937789Y-82188042D01*
X169948342Y-82183795D01*
X170021522Y-82158189D01*
X170174262Y-82062216D01*
X170301816Y-81934662D01*
X170397789Y-81781922D01*
X170457368Y-81611655D01*
X170457532Y-81610200D01*
X170477565Y-81432403D01*
X170477565Y-81432396D01*
X170457369Y-81253150D01*
X170457368Y-81253145D01*
X170414947Y-81131914D01*
X170397789Y-81082878D01*
X170381267Y-81056584D01*
X170320963Y-80960611D01*
X170301816Y-80930138D01*
X170174262Y-80802584D01*
X170021523Y-80706611D01*
X169851254Y-80647031D01*
X169851249Y-80647030D01*
X169672004Y-80626835D01*
X169671996Y-80626835D01*
X169492750Y-80647030D01*
X169492745Y-80647031D01*
X169322476Y-80706611D01*
X169169737Y-80802584D01*
X169042182Y-80930139D01*
X168944484Y-81085624D01*
X168892149Y-81131914D01*
X168823096Y-81142562D01*
X168759248Y-81114187D01*
X168751810Y-81107332D01*
X168650262Y-81005784D01*
X168497523Y-80909811D01*
X168327254Y-80850231D01*
X168327249Y-80850230D01*
X168148004Y-80830035D01*
X168147996Y-80830035D01*
X167968750Y-80850230D01*
X167968745Y-80850231D01*
X167798476Y-80909811D01*
X167645737Y-81005784D01*
X167518182Y-81133339D01*
X167475033Y-81202011D01*
X167422698Y-81248302D01*
X167353645Y-81258949D01*
X167289797Y-81230574D01*
X167265047Y-81202012D01*
X167257072Y-81189320D01*
X167253816Y-81184138D01*
X167126262Y-81056584D01*
X167111135Y-81047079D01*
X166973523Y-80960611D01*
X166803254Y-80901031D01*
X166803249Y-80901030D01*
X166624004Y-80880835D01*
X166623996Y-80880835D01*
X166444750Y-80901030D01*
X166444745Y-80901031D01*
X166274476Y-80960611D01*
X166121737Y-81056584D01*
X165994184Y-81184137D01*
X165994177Y-81184146D01*
X165990926Y-81189320D01*
X165938587Y-81235606D01*
X165869533Y-81246248D01*
X165805687Y-81217866D01*
X165780945Y-81189310D01*
X165777935Y-81184520D01*
X165729816Y-81107938D01*
X165602262Y-80980384D01*
X165600685Y-80979393D01*
X165449523Y-80884411D01*
X165279254Y-80824831D01*
X165279249Y-80824830D01*
X165100004Y-80804635D01*
X165099996Y-80804635D01*
X164920750Y-80824830D01*
X164920745Y-80824831D01*
X164750476Y-80884411D01*
X164597737Y-80980384D01*
X164470184Y-81107937D01*
X164374211Y-81260676D01*
X164314631Y-81430945D01*
X164314630Y-81430950D01*
X164294435Y-81610196D01*
X164294435Y-81614932D01*
X164274750Y-81681971D01*
X164221946Y-81727726D01*
X164152788Y-81737670D01*
X164089232Y-81708645D01*
X164063048Y-81676932D01*
X164060440Y-81672416D01*
X164054533Y-81662184D01*
X163927871Y-81521512D01*
X163927870Y-81521511D01*
X163774734Y-81410251D01*
X163774729Y-81410248D01*
X163601807Y-81333257D01*
X163601802Y-81333255D01*
X163456001Y-81302265D01*
X163416646Y-81293900D01*
X163227354Y-81293900D01*
X163194897Y-81300798D01*
X163042197Y-81333255D01*
X163042192Y-81333257D01*
X162869270Y-81410248D01*
X162869265Y-81410251D01*
X162716129Y-81521511D01*
X162589466Y-81662185D01*
X162494821Y-81826115D01*
X162494818Y-81826122D01*
X162436327Y-82006140D01*
X162436326Y-82006144D01*
X162416540Y-82194400D01*
X162436326Y-82382656D01*
X162436327Y-82382659D01*
X162494818Y-82562677D01*
X162494821Y-82562684D01*
X162589467Y-82726616D01*
X162659713Y-82804632D01*
X162716129Y-82867288D01*
X162869265Y-82978548D01*
X162869270Y-82978551D01*
X163042191Y-83055542D01*
X163042194Y-83055543D01*
X163042195Y-83055543D01*
X163042197Y-83055544D01*
X163056679Y-83058622D01*
X163118160Y-83091812D01*
X163151939Y-83152974D01*
X163154900Y-83179912D01*
X163154900Y-88762080D01*
X163135215Y-88829119D01*
X163118581Y-88849761D01*
X161661994Y-90306347D01*
X161600671Y-90339832D01*
X161542225Y-90338442D01*
X161525410Y-90333937D01*
X161290001Y-90313341D01*
X161289999Y-90313341D01*
X161054596Y-90333936D01*
X161054586Y-90333938D01*
X160826344Y-90395094D01*
X160826335Y-90395098D01*
X160612171Y-90494964D01*
X160612169Y-90494965D01*
X160418600Y-90630503D01*
X160296673Y-90752430D01*
X160235350Y-90785914D01*
X160165658Y-90780930D01*
X160109725Y-90739058D01*
X160092810Y-90708081D01*
X160043797Y-90576671D01*
X160043793Y-90576664D01*
X159957547Y-90461455D01*
X159957544Y-90461452D01*
X159842335Y-90375206D01*
X159842328Y-90375202D01*
X159707482Y-90324908D01*
X159707483Y-90324908D01*
X159647883Y-90318501D01*
X159647881Y-90318500D01*
X159647873Y-90318500D01*
X159647865Y-90318500D01*
X159345900Y-90318500D01*
X159278861Y-90298815D01*
X159233106Y-90246011D01*
X159221900Y-90194500D01*
X159221900Y-88397791D01*
X159241585Y-88330752D01*
X159253752Y-88314817D01*
X159253933Y-88314616D01*
X159348579Y-88150684D01*
X159407074Y-87970656D01*
X159426860Y-87782400D01*
X159407074Y-87594144D01*
X159348579Y-87414116D01*
X159253933Y-87250184D01*
X159127271Y-87109512D01*
X159089268Y-87081901D01*
X158974134Y-86998251D01*
X158974129Y-86998248D01*
X158801207Y-86921257D01*
X158801202Y-86921255D01*
X158655401Y-86890265D01*
X158616046Y-86881900D01*
X158426754Y-86881900D01*
X158394297Y-86888798D01*
X158241597Y-86921255D01*
X158241592Y-86921257D01*
X158068670Y-86998248D01*
X158068665Y-86998251D01*
X157915529Y-87109511D01*
X157788866Y-87250185D01*
X157694221Y-87414115D01*
X157694218Y-87414122D01*
X157667315Y-87496923D01*
X157635726Y-87594144D01*
X157615940Y-87782400D01*
X157635726Y-87970656D01*
X157635727Y-87970659D01*
X157694218Y-88150677D01*
X157694221Y-88150684D01*
X157788866Y-88314615D01*
X157789048Y-88314817D01*
X157789116Y-88314959D01*
X157792685Y-88319871D01*
X157791786Y-88320523D01*
X157819279Y-88377808D01*
X157820900Y-88397791D01*
X157820900Y-90228227D01*
X157801215Y-90295266D01*
X157748411Y-90341021D01*
X157740233Y-90344409D01*
X157657671Y-90375202D01*
X157657664Y-90375206D01*
X157542455Y-90461452D01*
X157542452Y-90461455D01*
X157456206Y-90576664D01*
X157456202Y-90576671D01*
X157405908Y-90711517D01*
X157399501Y-90771116D01*
X157399500Y-90771135D01*
X157399500Y-92566870D01*
X155481754Y-92566870D01*
X155595143Y-92509096D01*
X155754320Y-92393446D01*
X155893446Y-92254320D01*
X156009096Y-92095143D01*
X156098420Y-91919833D01*
X156159221Y-91732709D01*
X156190000Y-91538377D01*
X156190000Y-91341623D01*
X156159221Y-91147291D01*
X156098420Y-90960167D01*
X156009096Y-90784857D01*
X155893446Y-90625680D01*
X155754320Y-90486554D01*
X155595143Y-90370904D01*
X155419833Y-90281580D01*
X155232709Y-90220779D01*
X155038377Y-90190000D01*
X154841623Y-90190000D01*
X154647291Y-90220779D01*
X154460167Y-90281580D01*
X154284857Y-90370904D01*
X154125680Y-90486554D01*
X153986554Y-90625680D01*
X153870904Y-90784857D01*
X153781580Y-90960167D01*
X153720779Y-91147291D01*
X153690000Y-91341623D01*
X153690000Y-91538377D01*
X152906948Y-91538377D01*
X152900765Y-91444042D01*
X152900500Y-91435933D01*
X152900500Y-84582000D01*
X154872740Y-84582000D01*
X154892526Y-84770256D01*
X154892527Y-84770259D01*
X154951018Y-84950277D01*
X154951021Y-84950284D01*
X155045667Y-85114216D01*
X155133217Y-85211450D01*
X155172329Y-85254888D01*
X155325465Y-85366148D01*
X155325470Y-85366151D01*
X155498392Y-85443142D01*
X155498397Y-85443144D01*
X155683554Y-85482500D01*
X155683555Y-85482500D01*
X155872844Y-85482500D01*
X155872846Y-85482500D01*
X156058003Y-85443144D01*
X156230930Y-85366151D01*
X156384071Y-85254888D01*
X156510733Y-85114216D01*
X156605379Y-84950284D01*
X156663874Y-84770256D01*
X156683660Y-84582000D01*
X156663874Y-84393744D01*
X156605379Y-84213716D01*
X156510733Y-84049784D01*
X156510544Y-84049574D01*
X156510473Y-84049427D01*
X156506914Y-84044528D01*
X156507810Y-84043876D01*
X156480319Y-83986580D01*
X156478700Y-83966608D01*
X156478700Y-81977119D01*
X156498385Y-81910080D01*
X156515019Y-81889438D01*
X159080038Y-79324419D01*
X159141361Y-79290934D01*
X159167719Y-79288100D01*
X172484196Y-79288100D01*
X172575240Y-79269989D01*
X172619528Y-79261180D01*
X172641256Y-79252179D01*
X172662118Y-79243539D01*
X172709570Y-79234100D01*
X172763844Y-79234100D01*
X172763846Y-79234100D01*
X172949003Y-79194744D01*
X173121930Y-79117751D01*
X173275071Y-79006488D01*
X173401733Y-78865816D01*
X173417575Y-78838377D01*
X174010000Y-78838377D01*
X174040779Y-79032709D01*
X174101580Y-79219833D01*
X174190904Y-79395143D01*
X174306554Y-79554320D01*
X174445680Y-79693446D01*
X174604857Y-79809096D01*
X174780167Y-79898420D01*
X174967291Y-79959221D01*
X175161623Y-79990000D01*
X175358377Y-79990000D01*
X175552709Y-79959221D01*
X175739833Y-79898420D01*
X175915143Y-79809096D01*
X176074320Y-79693446D01*
X176213446Y-79554320D01*
X176329096Y-79395143D01*
X176418420Y-79219833D01*
X176479221Y-79032709D01*
X176510000Y-78838377D01*
X176510000Y-78641623D01*
X176479221Y-78447291D01*
X176418420Y-78260167D01*
X176329096Y-78084857D01*
X176213446Y-77925680D01*
X176074320Y-77786554D01*
X175915143Y-77670904D01*
X175739833Y-77581580D01*
X175552709Y-77520779D01*
X175358377Y-77490000D01*
X175161623Y-77490000D01*
X174967291Y-77520779D01*
X174780167Y-77581580D01*
X174604857Y-77670904D01*
X174445680Y-77786554D01*
X174306554Y-77925680D01*
X174190904Y-78084857D01*
X174101580Y-78260167D01*
X174040779Y-78447291D01*
X174010000Y-78641623D01*
X174010000Y-78838377D01*
X173417575Y-78838377D01*
X173496379Y-78701884D01*
X173554874Y-78521856D01*
X173574660Y-78333600D01*
X173554874Y-78145344D01*
X173496379Y-77965316D01*
X173401733Y-77801384D01*
X173275071Y-77660712D01*
X173275070Y-77660711D01*
X173121934Y-77549451D01*
X173121929Y-77549448D01*
X172949007Y-77472457D01*
X172949002Y-77472455D01*
X172803201Y-77441465D01*
X172763846Y-77433100D01*
X172574554Y-77433100D01*
X172542097Y-77439998D01*
X172389397Y-77472455D01*
X172389392Y-77472457D01*
X172216470Y-77549448D01*
X172216465Y-77549451D01*
X172063329Y-77660711D01*
X171936667Y-77801383D01*
X171922974Y-77825101D01*
X171872406Y-77873316D01*
X171815587Y-77887100D01*
X158757204Y-77887100D01*
X158621877Y-77914018D01*
X158621867Y-77914021D01*
X158494392Y-77966822D01*
X158379654Y-78043487D01*
X157393540Y-79029601D01*
X157332217Y-79063086D01*
X157262525Y-79058102D01*
X157206592Y-79016230D01*
X157193832Y-78982021D01*
X157179393Y-78975479D01*
X155175479Y-80979393D01*
X155181552Y-80992798D01*
X155202028Y-80997380D01*
X155251138Y-81047079D01*
X155265583Y-81115439D01*
X155240777Y-81180757D01*
X155237809Y-81184520D01*
X155234087Y-81189055D01*
X155157422Y-81303792D01*
X155104621Y-81431267D01*
X155104618Y-81431279D01*
X155084065Y-81534608D01*
X155084065Y-81534611D01*
X155077700Y-81566606D01*
X155077700Y-83966608D01*
X155058015Y-84033647D01*
X155045856Y-84049574D01*
X155045668Y-84049782D01*
X155045664Y-84049787D01*
X154951021Y-84213715D01*
X154951018Y-84213722D01*
X154892748Y-84393061D01*
X154892526Y-84393744D01*
X154872740Y-84582000D01*
X152900500Y-84582000D01*
X152900500Y-78838377D01*
X153690000Y-78838377D01*
X153720779Y-79032709D01*
X153781580Y-79219833D01*
X153870904Y-79395143D01*
X153986554Y-79554320D01*
X154125680Y-79693446D01*
X154284857Y-79809096D01*
X154460167Y-79898420D01*
X154647291Y-79959221D01*
X154841623Y-79990000D01*
X155038377Y-79990000D01*
X155232709Y-79959221D01*
X155419833Y-79898420D01*
X155595143Y-79809096D01*
X155754320Y-79693446D01*
X155893446Y-79554320D01*
X156009096Y-79395143D01*
X156098420Y-79219833D01*
X156159221Y-79032709D01*
X156190000Y-78838377D01*
X156190000Y-78641623D01*
X156159221Y-78447291D01*
X156098420Y-78260167D01*
X156009096Y-78084857D01*
X155893446Y-77925680D01*
X155754320Y-77786554D01*
X155595143Y-77670904D01*
X155419833Y-77581580D01*
X155232709Y-77520779D01*
X155038377Y-77490000D01*
X154841623Y-77490000D01*
X154647291Y-77520779D01*
X154460167Y-77581580D01*
X154284857Y-77670904D01*
X154125680Y-77786554D01*
X153986554Y-77925680D01*
X153870904Y-78084857D01*
X153781580Y-78260167D01*
X153720779Y-78447291D01*
X153690000Y-78641623D01*
X153690000Y-78838377D01*
X152900500Y-78838377D01*
X152900500Y-78744066D01*
X152900765Y-78735957D01*
X152906948Y-78641623D01*
X152917417Y-78481881D01*
X152919531Y-78465829D01*
X152956947Y-78277728D01*
X152989330Y-78215822D01*
X152990881Y-78214243D01*
X154414243Y-76790881D01*
X154475566Y-76757396D01*
X154477565Y-76756979D01*
X154665829Y-76719531D01*
X154681881Y-76717417D01*
X154916255Y-76702056D01*
X154935958Y-76700765D01*
X154944067Y-76700500D01*
X155005892Y-76700500D01*
X175194108Y-76700500D01*
X175255933Y-76700500D01*
X175264042Y-76700765D01*
G37*
%TD.AperFunction*%
%TD*%
M02*
