%TF.GenerationSoftware,KiCad,Pcbnew,8.0.1*%
%TF.CreationDate,2024-04-26T21:14:53-06:00*%
%TF.ProjectId,apds-9306-sensor,61706473-2d39-4333-9036-2d73656e736f,rev?*%
%TF.SameCoordinates,Original*%
%TF.FileFunction,Copper,L1,Top*%
%TF.FilePolarity,Positive*%
%FSLAX46Y46*%
G04 Gerber Fmt 4.6, Leading zero omitted, Abs format (unit mm)*
G04 Created by KiCad (PCBNEW 8.0.1) date 2024-04-26 21:14:53*
%MOMM*%
%LPD*%
G01*
G04 APERTURE LIST*
G04 Aperture macros list*
%AMRoundRect*
0 Rectangle with rounded corners*
0 $1 Rounding radius*
0 $2 $3 $4 $5 $6 $7 $8 $9 X,Y pos of 4 corners*
0 Add a 4 corners polygon primitive as box body*
4,1,4,$2,$3,$4,$5,$6,$7,$8,$9,$2,$3,0*
0 Add four circle primitives for the rounded corners*
1,1,$1+$1,$2,$3*
1,1,$1+$1,$4,$5*
1,1,$1+$1,$6,$7*
1,1,$1+$1,$8,$9*
0 Add four rect primitives between the rounded corners*
20,1,$1+$1,$2,$3,$4,$5,0*
20,1,$1+$1,$4,$5,$6,$7,0*
20,1,$1+$1,$6,$7,$8,$9,0*
20,1,$1+$1,$8,$9,$2,$3,0*%
G04 Aperture macros list end*
%TA.AperFunction,SMDPad,CuDef*%
%ADD10RoundRect,0.237500X-0.300000X-0.237500X0.300000X-0.237500X0.300000X0.237500X-0.300000X0.237500X0*%
%TD*%
%TA.AperFunction,SMDPad,CuDef*%
%ADD11RoundRect,0.237500X-0.237500X0.250000X-0.237500X-0.250000X0.237500X-0.250000X0.237500X0.250000X0*%
%TD*%
%TA.AperFunction,SMDPad,CuDef*%
%ADD12RoundRect,0.025600X0.594400X0.134400X-0.594400X0.134400X-0.594400X-0.134400X0.594400X-0.134400X0*%
%TD*%
%TA.AperFunction,ComponentPad*%
%ADD13C,3.500000*%
%TD*%
%TA.AperFunction,SMDPad,CuDef*%
%ADD14RoundRect,0.150000X-0.625000X0.150000X-0.625000X-0.150000X0.625000X-0.150000X0.625000X0.150000X0*%
%TD*%
%TA.AperFunction,SMDPad,CuDef*%
%ADD15RoundRect,0.250000X-0.650000X0.350000X-0.650000X-0.350000X0.650000X-0.350000X0.650000X0.350000X0*%
%TD*%
%TA.AperFunction,SMDPad,CuDef*%
%ADD16R,0.787400X0.355600*%
%TD*%
%TA.AperFunction,SMDPad,CuDef*%
%ADD17RoundRect,0.250000X-0.337500X-0.475000X0.337500X-0.475000X0.337500X0.475000X-0.337500X0.475000X0*%
%TD*%
%TA.AperFunction,SMDPad,CuDef*%
%ADD18RoundRect,0.150000X0.625000X-0.150000X0.625000X0.150000X-0.625000X0.150000X-0.625000X-0.150000X0*%
%TD*%
%TA.AperFunction,SMDPad,CuDef*%
%ADD19RoundRect,0.250000X0.650000X-0.350000X0.650000X0.350000X-0.650000X0.350000X-0.650000X-0.350000X0*%
%TD*%
%TA.AperFunction,SMDPad,CuDef*%
%ADD20RoundRect,0.150000X0.150000X-0.512500X0.150000X0.512500X-0.150000X0.512500X-0.150000X-0.512500X0*%
%TD*%
%TA.AperFunction,ComponentPad*%
%ADD21R,1.700000X1.700000*%
%TD*%
%TA.AperFunction,ComponentPad*%
%ADD22O,1.700000X1.700000*%
%TD*%
%TA.AperFunction,ViaPad*%
%ADD23C,0.800000*%
%TD*%
%TA.AperFunction,ViaPad*%
%ADD24C,0.600000*%
%TD*%
%TA.AperFunction,Conductor*%
%ADD25C,0.400000*%
%TD*%
%TA.AperFunction,Conductor*%
%ADD26C,0.300000*%
%TD*%
G04 APERTURE END LIST*
D10*
%TO.P,C4,1*%
%TO.N,+3.3V*%
X165100000Y-83134200D03*
%TO.P,C4,2*%
%TO.N,GND*%
X166825000Y-83134200D03*
%TD*%
D11*
%TO.P,C3,1*%
%TO.N,+3.3V*%
X163322000Y-83138000D03*
%TO.P,C3,2*%
%TO.N,GND*%
X163322000Y-84963000D03*
%TD*%
D12*
%TO.P,U2,1,SCL*%
%TO.N,/SCL_3V*%
X165667200Y-87797400D03*
%TO.P,U2,2,SDA*%
%TO.N,/SDA_3V*%
X165667200Y-87147400D03*
%TO.P,U2,3,VDD*%
%TO.N,+3.3V*%
X165667200Y-86497400D03*
%TO.P,U2,4,INT*%
%TO.N,/INTR*%
X164177200Y-86497400D03*
%TO.P,U2,5*%
%TO.N,N/C*%
X164177200Y-87147400D03*
%TO.P,U2,6,GND*%
%TO.N,GND*%
X164177200Y-87797400D03*
%TD*%
D13*
%TO.P,H1,1*%
%TO.N,GND*%
X175260000Y-78740000D03*
%TD*%
D14*
%TO.P,J2,1,Pin_1*%
%TO.N,GND*%
X157676600Y-83590000D03*
%TO.P,J2,2,Pin_2*%
%TO.N,VCC*%
X157676600Y-84590000D03*
%TO.P,J2,3,Pin_3*%
%TO.N,/SDA*%
X157676600Y-85590000D03*
%TO.P,J2,4,Pin_4*%
%TO.N,/SCL*%
X157676600Y-86590000D03*
D15*
%TO.P,J2,MP*%
%TO.N,N/C*%
X153801600Y-82290000D03*
X153801600Y-87890000D03*
%TD*%
D11*
%TO.P,R2,1*%
%TO.N,VCC*%
X171196000Y-78310100D03*
%TO.P,R2,2*%
%TO.N,/SCL*%
X171196000Y-80135100D03*
%TD*%
D16*
%TO.P,Q1,1,1*%
%TO.N,/SCL_3V*%
X170307000Y-87136999D03*
%TO.P,Q1,2,2*%
%TO.N,+3.3V*%
X170307000Y-86487000D03*
%TO.P,Q1,3,3*%
%TO.N,/SCL*%
X170307000Y-85837001D03*
%TO.P,Q1,4,4*%
%TO.N,/SDA_3V*%
X168173400Y-85837001D03*
%TO.P,Q1,5,5*%
%TO.N,+3.3V*%
X168173400Y-86487000D03*
%TO.P,Q1,6,6*%
%TO.N,/SDA*%
X168173400Y-87136999D03*
%TD*%
D17*
%TO.P,C1,1*%
%TO.N,VCC*%
X159871500Y-87731600D03*
%TO.P,C1,2*%
%TO.N,GND*%
X161946500Y-87731600D03*
%TD*%
D18*
%TO.P,J3,1,Pin_1*%
%TO.N,GND*%
X172523400Y-86590000D03*
%TO.P,J3,2,Pin_2*%
%TO.N,VCC*%
X172523400Y-85590000D03*
%TO.P,J3,3,Pin_3*%
%TO.N,/SDA*%
X172523400Y-84590000D03*
%TO.P,J3,4,Pin_4*%
%TO.N,/SCL*%
X172523400Y-83590000D03*
D19*
%TO.P,J3,MP*%
%TO.N,N/C*%
X176398400Y-87890000D03*
X176398400Y-82290000D03*
%TD*%
D11*
%TO.P,R5,1*%
%TO.N,+3.3V*%
X165100000Y-78310100D03*
%TO.P,R5,2*%
%TO.N,/INTR*%
X165100000Y-80135100D03*
%TD*%
D13*
%TO.P,H4,1*%
%TO.N,GND*%
X154940000Y-91440000D03*
%TD*%
%TO.P,H3,1*%
%TO.N,GND*%
X175260000Y-91440000D03*
%TD*%
D11*
%TO.P,R4,1*%
%TO.N,+3.3V*%
X166624000Y-78310100D03*
%TO.P,R4,2*%
%TO.N,/SDA_3V*%
X166624000Y-80135100D03*
%TD*%
%TO.P,R1,1*%
%TO.N,VCC*%
X169672000Y-78310100D03*
%TO.P,R1,2*%
%TO.N,/SDA*%
X169672000Y-80135100D03*
%TD*%
D17*
%TO.P,C2,1*%
%TO.N,+3.3V*%
X159871500Y-80772000D03*
%TO.P,C2,2*%
%TO.N,GND*%
X161946500Y-80772000D03*
%TD*%
D20*
%TO.P,U1,1,VIN*%
%TO.N,VCC*%
X159781200Y-85714000D03*
%TO.P,U1,2,GND*%
%TO.N,GND*%
X160731200Y-85714000D03*
%TO.P,U1,3,EN*%
%TO.N,VCC*%
X161681200Y-85714000D03*
%TO.P,U1,4,NC*%
%TO.N,unconnected-(U1-NC-Pad4)*%
X161681200Y-83439000D03*
%TO.P,U1,5,VOUT*%
%TO.N,+3.3V*%
X159781200Y-83439000D03*
%TD*%
D11*
%TO.P,R3,1*%
%TO.N,+3.3V*%
X168148000Y-78310100D03*
%TO.P,R3,2*%
%TO.N,/SCL_3V*%
X168148000Y-80135100D03*
%TD*%
D13*
%TO.P,H2,1*%
%TO.N,GND*%
X154940000Y-78740000D03*
%TD*%
D21*
%TO.P,J1,1,Pin_1*%
%TO.N,VCC*%
X158750000Y-91669000D03*
D22*
%TO.P,J1,2,Pin_2*%
%TO.N,+3.3V*%
X161290000Y-91669000D03*
%TO.P,J1,3,Pin_3*%
%TO.N,GND*%
X163830000Y-91669000D03*
%TO.P,J1,4,Pin_4*%
%TO.N,/SDA*%
X166370000Y-91669000D03*
%TO.P,J1,5,Pin_5*%
%TO.N,/SCL*%
X168910000Y-91669000D03*
%TO.P,J1,6,Pin_6*%
%TO.N,/INTR*%
X171450000Y-91669000D03*
%TD*%
D23*
%TO.N,VCC*%
X158521400Y-87782400D03*
X172669200Y-78333600D03*
X155778200Y-84582000D03*
D24*
%TO.N,GND*%
X153314400Y-80822800D03*
X153416000Y-89230200D03*
D23*
X163576000Y-80314800D03*
D24*
X156845000Y-92938600D03*
X173304200Y-77165200D03*
X176606200Y-85648800D03*
X176809400Y-80619600D03*
X162902900Y-86017100D03*
X170688000Y-82550000D03*
X174294800Y-88671400D03*
X176555400Y-84023200D03*
X157505400Y-77343000D03*
X153822400Y-84251800D03*
X155397200Y-88544400D03*
X173024800Y-92786200D03*
X157556200Y-82296000D03*
X153797000Y-86004400D03*
D23*
X160985200Y-88747600D03*
%TO.N,+3.3V*%
X163322000Y-82194400D03*
D24*
%TO.N,/SDA*%
X171297600Y-84607400D03*
X169672000Y-81432400D03*
X169214800Y-87137000D03*
%TO.N,/SCL_3V*%
X168122600Y-87814801D03*
X168148000Y-81635600D03*
%TO.N,/SDA_3V*%
X167005000Y-87147400D03*
X166624000Y-81686400D03*
X167005000Y-85847400D03*
%TO.N,/SCL*%
X174242600Y-83590000D03*
%TO.N,/INTR*%
X164566600Y-84810600D03*
X165252400Y-88722200D03*
X165100000Y-81610200D03*
%TD*%
D25*
%TO.N,VCC*%
X159664400Y-84590000D02*
X161348800Y-84590000D01*
X172669200Y-78333600D02*
X172669200Y-80010000D01*
X161681200Y-84922400D02*
X161681200Y-85714000D01*
D26*
X169672000Y-78310100D02*
X171196000Y-78310100D01*
D25*
X159781200Y-84706800D02*
X159664400Y-84590000D01*
X155786200Y-84590000D02*
X155778200Y-84582000D01*
X157676600Y-84590000D02*
X155786200Y-84590000D01*
X172669200Y-78333600D02*
X172645700Y-78310100D01*
X174942600Y-85178800D02*
X174942600Y-82283400D01*
X157676600Y-84590000D02*
X159664400Y-84590000D01*
X159820700Y-87782400D02*
X159871500Y-87731600D01*
X174531400Y-85590000D02*
X174942600Y-85178800D01*
X174942600Y-82283400D02*
X172669200Y-80010000D01*
X161348800Y-84590000D02*
X161681200Y-84922400D01*
X158521400Y-87782400D02*
X159820700Y-87782400D01*
X159781200Y-85714000D02*
X159781200Y-84706800D01*
X172645700Y-78310100D02*
X171196000Y-78310100D01*
X159781200Y-85714000D02*
X159781200Y-87641300D01*
X159781200Y-87641300D02*
X159871500Y-87731600D01*
X174531400Y-85590000D02*
X172523400Y-85590000D01*
X158572200Y-87731600D02*
X158521400Y-87782400D01*
D26*
%TO.N,GND*%
X157676600Y-83590000D02*
X157556200Y-83469600D01*
X160731200Y-86516300D02*
X160731200Y-85714000D01*
X161946500Y-87731600D02*
X160731200Y-86516300D01*
X164177200Y-87797400D02*
X162012300Y-87797400D01*
X162763200Y-86017100D02*
X161946500Y-86833800D01*
X161946500Y-80772000D02*
X161874200Y-80699700D01*
X162902900Y-86017100D02*
X162763200Y-86017100D01*
X163118800Y-80772000D02*
X163576000Y-80314800D01*
X163322000Y-85598000D02*
X163322000Y-84963000D01*
X161921100Y-87757000D02*
X161772600Y-87757000D01*
X161946500Y-87731600D02*
X161946500Y-87786300D01*
X157556200Y-83469600D02*
X157556200Y-82296000D01*
X161946500Y-80772000D02*
X163118800Y-80772000D01*
X161946500Y-86833800D02*
X161946500Y-87731600D01*
X161946500Y-87731600D02*
X161921100Y-87757000D01*
X161946500Y-87786300D02*
X160985200Y-88747600D01*
X162902900Y-86017100D02*
X163322000Y-85598000D01*
X162012300Y-87797400D02*
X161946500Y-87731600D01*
D25*
%TO.N,+3.3V*%
X159781200Y-83439000D02*
X159781200Y-82194400D01*
X165096200Y-83138000D02*
X165100000Y-83134200D01*
X166624000Y-78310100D02*
X168148000Y-78310100D01*
X165100000Y-83134200D02*
X165100000Y-83820000D01*
X159871500Y-78659900D02*
X159871500Y-80772000D01*
X165100000Y-83820000D02*
X165667200Y-84387200D01*
X160223200Y-78308200D02*
X159871500Y-78659900D01*
X163322000Y-82194400D02*
X159781200Y-82194400D01*
X159781200Y-80862300D02*
X159871500Y-80772000D01*
D26*
X165667200Y-86497400D02*
X168163000Y-86497400D01*
X168163000Y-86497400D02*
X168173400Y-86487000D01*
D25*
X165667200Y-84387200D02*
X165667200Y-86497400D01*
X165100000Y-78310100D02*
X166624000Y-78310100D01*
X163322000Y-83138000D02*
X165096200Y-83138000D01*
X163322000Y-83138000D02*
X163322000Y-82194400D01*
D26*
X168173400Y-86487000D02*
X170307000Y-86487000D01*
D25*
X165098100Y-78308200D02*
X160223200Y-78308200D01*
X165100000Y-78310100D02*
X165098100Y-78308200D01*
X159781200Y-83439000D02*
X159816800Y-83403400D01*
X159781200Y-82194400D02*
X159781200Y-80862300D01*
D26*
%TO.N,/SDA*%
X158369000Y-90347800D02*
X165048800Y-90347800D01*
X155778200Y-87757000D02*
X158369000Y-90347800D01*
X157676600Y-85590000D02*
X156395800Y-85590000D01*
X165048800Y-90347800D02*
X166370000Y-91669000D01*
X169214799Y-87136999D02*
X168173400Y-87136999D01*
X172523400Y-84590000D02*
X171315000Y-84590000D01*
X155778200Y-86207600D02*
X155778200Y-87757000D01*
X169672000Y-81432400D02*
X169672000Y-80135100D01*
X171315000Y-84590000D02*
X171297600Y-84607400D01*
X169214800Y-87137000D02*
X169214799Y-87136999D01*
X156395800Y-85590000D02*
X155778200Y-86207600D01*
%TO.N,/SCL_3V*%
X165667200Y-87797400D02*
X170038000Y-87797400D01*
X168148000Y-80135100D02*
X168148000Y-81635600D01*
X170307000Y-87528400D02*
X170307000Y-87136999D01*
X170038000Y-87797400D02*
X170307000Y-87528400D01*
%TO.N,/SDA_3V*%
X168173400Y-85837001D02*
X167015399Y-85837001D01*
X166624000Y-81686400D02*
X166624000Y-80135100D01*
X167015399Y-85837001D02*
X167005000Y-85847400D01*
X165667200Y-87147400D02*
X167005000Y-87147400D01*
%TO.N,/SCL*%
X157676600Y-88283800D02*
X158927800Y-89535000D01*
X157676600Y-86590000D02*
X157676600Y-88283800D01*
X167894000Y-89535000D02*
X168910000Y-90551000D01*
X170307000Y-84607400D02*
X170307000Y-85837001D01*
X172523400Y-83590000D02*
X171324400Y-83590000D01*
X174242600Y-83590000D02*
X172523400Y-83590000D01*
X172523400Y-83590000D02*
X172523400Y-82074000D01*
X158927800Y-89535000D02*
X167894000Y-89535000D01*
X171196000Y-80746600D02*
X171196000Y-80135100D01*
X172523400Y-82074000D02*
X171196000Y-80746600D01*
X171324400Y-83590000D02*
X170307000Y-84607400D01*
X168910000Y-90551000D02*
X168910000Y-91669000D01*
%TO.N,/INTR*%
X165252400Y-88722200D02*
X169799000Y-88722200D01*
X169799000Y-88722200D02*
X171450000Y-90373200D01*
X164566600Y-85699600D02*
X164160200Y-86106000D01*
X165100000Y-80135100D02*
X165100000Y-81610200D01*
X164160200Y-86106000D02*
X164160200Y-86480400D01*
X164566600Y-84810600D02*
X164566600Y-85699600D01*
X164160200Y-86480400D02*
X164177200Y-86497400D01*
X171450000Y-90373200D02*
X171450000Y-91669000D01*
%TD*%
%TA.AperFunction,Conductor*%
%TO.N,GND*%
G36*
X177231591Y-83396681D02*
G01*
X177282475Y-83444561D01*
X177299500Y-83507269D01*
X177299500Y-86672730D01*
X177279815Y-86739769D01*
X177227011Y-86785524D01*
X177162898Y-86796088D01*
X177098411Y-86789500D01*
X175698398Y-86789500D01*
X175698381Y-86789501D01*
X175595603Y-86800000D01*
X175595600Y-86800001D01*
X175429068Y-86855185D01*
X175429063Y-86855187D01*
X175279742Y-86947289D01*
X175155689Y-87071342D01*
X175063587Y-87220663D01*
X175063585Y-87220668D01*
X175050087Y-87261402D01*
X175008401Y-87387203D01*
X175008401Y-87387204D01*
X175008400Y-87387204D01*
X174997900Y-87489983D01*
X174997900Y-88290001D01*
X174997901Y-88290019D01*
X175008400Y-88392796D01*
X175008401Y-88392799D01*
X175026447Y-88447256D01*
X175063586Y-88559334D01*
X175155688Y-88708656D01*
X175279744Y-88832712D01*
X175429066Y-88924814D01*
X175595603Y-88979999D01*
X175698391Y-88990500D01*
X177098408Y-88990499D01*
X177162898Y-88983911D01*
X177231591Y-88996681D01*
X177282475Y-89044561D01*
X177299500Y-89107269D01*
X177299500Y-91435933D01*
X177299235Y-91444043D01*
X177282583Y-91698104D01*
X177280465Y-91714186D01*
X177243053Y-91902266D01*
X177210668Y-91964177D01*
X177209117Y-91965755D01*
X175785755Y-93389117D01*
X175724432Y-93422602D01*
X175722266Y-93423053D01*
X175534186Y-93460465D01*
X175518104Y-93462583D01*
X175264043Y-93479235D01*
X175255933Y-93479500D01*
X154944067Y-93479500D01*
X154935957Y-93479235D01*
X154681895Y-93462583D01*
X154665814Y-93460465D01*
X154477733Y-93423053D01*
X154415822Y-93390668D01*
X154414243Y-93389117D01*
X152990881Y-91965755D01*
X152957396Y-91904432D01*
X152956970Y-91902389D01*
X152919532Y-91714172D01*
X152917417Y-91698116D01*
X152906948Y-91538377D01*
X153690000Y-91538377D01*
X153720779Y-91732709D01*
X153781580Y-91919833D01*
X153870904Y-92095143D01*
X153986554Y-92254320D01*
X154125680Y-92393446D01*
X154284857Y-92509096D01*
X154460167Y-92598420D01*
X154647291Y-92659221D01*
X154841623Y-92690000D01*
X155038377Y-92690000D01*
X155232709Y-92659221D01*
X155419833Y-92598420D01*
X155595143Y-92509096D01*
X155754320Y-92393446D01*
X155893446Y-92254320D01*
X156009096Y-92095143D01*
X156098420Y-91919833D01*
X156159221Y-91732709D01*
X156190000Y-91538377D01*
X156190000Y-91341623D01*
X156159221Y-91147291D01*
X156098420Y-90960167D01*
X156009096Y-90784857D01*
X155893446Y-90625680D01*
X155754320Y-90486554D01*
X155595143Y-90370904D01*
X155419833Y-90281580D01*
X155232709Y-90220779D01*
X155038377Y-90190000D01*
X154841623Y-90190000D01*
X154647291Y-90220779D01*
X154460167Y-90281580D01*
X154284857Y-90370904D01*
X154125680Y-90486554D01*
X153986554Y-90625680D01*
X153870904Y-90784857D01*
X153781580Y-90960167D01*
X153720779Y-91147291D01*
X153690000Y-91341623D01*
X153690000Y-91538377D01*
X152906948Y-91538377D01*
X152900765Y-91444042D01*
X152900500Y-91435933D01*
X152900500Y-89107269D01*
X152920185Y-89040230D01*
X152972989Y-88994475D01*
X153037100Y-88983911D01*
X153101591Y-88990500D01*
X154501608Y-88990499D01*
X154604397Y-88979999D01*
X154770934Y-88924814D01*
X154920256Y-88832712D01*
X155044312Y-88708656D01*
X155136414Y-88559334D01*
X155191599Y-88392797D01*
X155193113Y-88377976D01*
X155219509Y-88313285D01*
X155276689Y-88273134D01*
X155346500Y-88270270D01*
X155404152Y-88302898D01*
X157475148Y-90373894D01*
X157508633Y-90435217D01*
X157503649Y-90504909D01*
X157486734Y-90535886D01*
X157456204Y-90576668D01*
X157456202Y-90576671D01*
X157405908Y-90711517D01*
X157399501Y-90771116D01*
X157399500Y-90771135D01*
X157399500Y-92566870D01*
X157399501Y-92566876D01*
X157405908Y-92626483D01*
X157456202Y-92761328D01*
X157456206Y-92761335D01*
X157542452Y-92876544D01*
X157542455Y-92876547D01*
X157657664Y-92962793D01*
X157657671Y-92962797D01*
X157792517Y-93013091D01*
X157792516Y-93013091D01*
X157799444Y-93013835D01*
X157852127Y-93019500D01*
X159647872Y-93019499D01*
X159707483Y-93013091D01*
X159842331Y-92962796D01*
X159957546Y-92876546D01*
X160043796Y-92761331D01*
X160092810Y-92629916D01*
X160134681Y-92573984D01*
X160200145Y-92549566D01*
X160268418Y-92564417D01*
X160296673Y-92585569D01*
X160418599Y-92707495D01*
X160515384Y-92775265D01*
X160612165Y-92843032D01*
X160612167Y-92843033D01*
X160612170Y-92843035D01*
X160826337Y-92942903D01*
X161054592Y-93004063D01*
X161231034Y-93019500D01*
X161289999Y-93024659D01*
X161290000Y-93024659D01*
X161290001Y-93024659D01*
X161348966Y-93019500D01*
X161525408Y-93004063D01*
X161753663Y-92942903D01*
X161967830Y-92843035D01*
X162161401Y-92707495D01*
X162328495Y-92540401D01*
X162458730Y-92354405D01*
X162513307Y-92310781D01*
X162582805Y-92303587D01*
X162645160Y-92335110D01*
X162661879Y-92354405D01*
X162791890Y-92540078D01*
X162958917Y-92707105D01*
X163152421Y-92842600D01*
X163366507Y-92942429D01*
X163366516Y-92942433D01*
X163580000Y-92999634D01*
X163580000Y-92102012D01*
X163637007Y-92134925D01*
X163764174Y-92169000D01*
X163895826Y-92169000D01*
X164022993Y-92134925D01*
X164080000Y-92102012D01*
X164080000Y-92999633D01*
X164293483Y-92942433D01*
X164293492Y-92942429D01*
X164507578Y-92842600D01*
X164701082Y-92707105D01*
X164868105Y-92540082D01*
X164998119Y-92354405D01*
X165052696Y-92310781D01*
X165122195Y-92303588D01*
X165184549Y-92335110D01*
X165201269Y-92354405D01*
X165331505Y-92540401D01*
X165498599Y-92707495D01*
X165595384Y-92775265D01*
X165692165Y-92843032D01*
X165692167Y-92843033D01*
X165692170Y-92843035D01*
X165906337Y-92942903D01*
X166134592Y-93004063D01*
X166311034Y-93019500D01*
X166369999Y-93024659D01*
X166370000Y-93024659D01*
X166370001Y-93024659D01*
X166428966Y-93019500D01*
X166605408Y-93004063D01*
X166833663Y-92942903D01*
X167047830Y-92843035D01*
X167241401Y-92707495D01*
X167408495Y-92540401D01*
X167538425Y-92354842D01*
X167593002Y-92311217D01*
X167662500Y-92304023D01*
X167724855Y-92335546D01*
X167741575Y-92354842D01*
X167871500Y-92540395D01*
X167871505Y-92540401D01*
X168038599Y-92707495D01*
X168135384Y-92775265D01*
X168232165Y-92843032D01*
X168232167Y-92843033D01*
X168232170Y-92843035D01*
X168446337Y-92942903D01*
X168674592Y-93004063D01*
X168851034Y-93019500D01*
X168909999Y-93024659D01*
X168910000Y-93024659D01*
X168910001Y-93024659D01*
X168968966Y-93019500D01*
X169145408Y-93004063D01*
X169373663Y-92942903D01*
X169587830Y-92843035D01*
X169781401Y-92707495D01*
X169948495Y-92540401D01*
X170078425Y-92354842D01*
X170133002Y-92311217D01*
X170202500Y-92304023D01*
X170264855Y-92335546D01*
X170281575Y-92354842D01*
X170411500Y-92540395D01*
X170411505Y-92540401D01*
X170578599Y-92707495D01*
X170675384Y-92775265D01*
X170772165Y-92843032D01*
X170772167Y-92843033D01*
X170772170Y-92843035D01*
X170986337Y-92942903D01*
X171214592Y-93004063D01*
X171391034Y-93019500D01*
X171449999Y-93024659D01*
X171450000Y-93024659D01*
X171450001Y-93024659D01*
X171508966Y-93019500D01*
X171685408Y-93004063D01*
X171913663Y-92942903D01*
X172127830Y-92843035D01*
X172321401Y-92707495D01*
X172488495Y-92540401D01*
X172624035Y-92346830D01*
X172723903Y-92132663D01*
X172785063Y-91904408D01*
X172805659Y-91669000D01*
X172794231Y-91538377D01*
X174010000Y-91538377D01*
X174040779Y-91732709D01*
X174101580Y-91919833D01*
X174190904Y-92095143D01*
X174306554Y-92254320D01*
X174445680Y-92393446D01*
X174604857Y-92509096D01*
X174780167Y-92598420D01*
X174967291Y-92659221D01*
X175161623Y-92690000D01*
X175358377Y-92690000D01*
X175552709Y-92659221D01*
X175739833Y-92598420D01*
X175915143Y-92509096D01*
X176074320Y-92393446D01*
X176213446Y-92254320D01*
X176329096Y-92095143D01*
X176418420Y-91919833D01*
X176479221Y-91732709D01*
X176510000Y-91538377D01*
X176510000Y-91341623D01*
X176479221Y-91147291D01*
X176418420Y-90960167D01*
X176329096Y-90784857D01*
X176213446Y-90625680D01*
X176074320Y-90486554D01*
X175915143Y-90370904D01*
X175739833Y-90281580D01*
X175552709Y-90220779D01*
X175358377Y-90190000D01*
X175161623Y-90190000D01*
X174967291Y-90220779D01*
X174780167Y-90281580D01*
X174604857Y-90370904D01*
X174445680Y-90486554D01*
X174306554Y-90625680D01*
X174190904Y-90784857D01*
X174101580Y-90960167D01*
X174040779Y-91147291D01*
X174010000Y-91341623D01*
X174010000Y-91538377D01*
X172794231Y-91538377D01*
X172785063Y-91433592D01*
X172723903Y-91205337D01*
X172624035Y-90991171D01*
X172618425Y-90983158D01*
X172488494Y-90797597D01*
X172321402Y-90630506D01*
X172321401Y-90630505D01*
X172198616Y-90544530D01*
X172153376Y-90512852D01*
X172109751Y-90458275D01*
X172100500Y-90411277D01*
X172100500Y-90309128D01*
X172075502Y-90183461D01*
X172075501Y-90183460D01*
X172075501Y-90183456D01*
X172045681Y-90111465D01*
X172026466Y-90065074D01*
X171955277Y-89958531D01*
X171955272Y-89958525D01*
X170463727Y-88466981D01*
X170430242Y-88405658D01*
X170435226Y-88335966D01*
X170463727Y-88291619D01*
X170812271Y-87943075D01*
X170812276Y-87943070D01*
X170883465Y-87836527D01*
X170891029Y-87818263D01*
X170934866Y-87763862D01*
X170941325Y-87759872D01*
X170975088Y-87734597D01*
X171058246Y-87672345D01*
X171144496Y-87557130D01*
X171194791Y-87422282D01*
X171201200Y-87362672D01*
X171201199Y-87261399D01*
X171220883Y-87194363D01*
X171273686Y-87148607D01*
X171342845Y-87138663D01*
X171406401Y-87167687D01*
X171412880Y-87173720D01*
X171496838Y-87257678D01*
X171496847Y-87257685D01*
X171638203Y-87341282D01*
X171638206Y-87341283D01*
X171795904Y-87387099D01*
X171795910Y-87387100D01*
X171832750Y-87389999D01*
X171832766Y-87390000D01*
X172273400Y-87390000D01*
X172273400Y-86840000D01*
X172773400Y-86840000D01*
X172773400Y-87390000D01*
X173214034Y-87390000D01*
X173214049Y-87389999D01*
X173250889Y-87387100D01*
X173250895Y-87387099D01*
X173408593Y-87341283D01*
X173408596Y-87341282D01*
X173549952Y-87257685D01*
X173549961Y-87257678D01*
X173666078Y-87141561D01*
X173666085Y-87141552D01*
X173749681Y-87000198D01*
X173795500Y-86842486D01*
X173795695Y-86840001D01*
X173795695Y-86840000D01*
X172773400Y-86840000D01*
X172273400Y-86840000D01*
X172273400Y-86514500D01*
X172293085Y-86447461D01*
X172345889Y-86401706D01*
X172397400Y-86390500D01*
X173214086Y-86390500D01*
X173214094Y-86390500D01*
X173250969Y-86387598D01*
X173250971Y-86387597D01*
X173250973Y-86387597D01*
X173397855Y-86344924D01*
X173432450Y-86340000D01*
X173795696Y-86340000D01*
X173804637Y-86330328D01*
X173864598Y-86294462D01*
X173895692Y-86290500D01*
X174600396Y-86290500D01*
X174691440Y-86272389D01*
X174735728Y-86263580D01*
X174799469Y-86237177D01*
X174863207Y-86210777D01*
X174863208Y-86210776D01*
X174863211Y-86210775D01*
X174977943Y-86134114D01*
X175486714Y-85625343D01*
X175563375Y-85510611D01*
X175616180Y-85383128D01*
X175636705Y-85279943D01*
X175643100Y-85247796D01*
X175643100Y-83514499D01*
X175662785Y-83447460D01*
X175715589Y-83401705D01*
X175767095Y-83390499D01*
X177098408Y-83390499D01*
X177162898Y-83383911D01*
X177231591Y-83396681D01*
G37*
%TD.AperFunction*%
%TA.AperFunction,Conductor*%
G36*
X164280239Y-87827584D02*
G01*
X164325994Y-87880388D01*
X164337200Y-87931899D01*
X164337200Y-88457400D01*
X164337914Y-88457400D01*
X164404953Y-88477085D01*
X164450708Y-88529889D01*
X164461134Y-88595283D01*
X164446835Y-88722195D01*
X164446835Y-88722201D01*
X164449586Y-88746615D01*
X164437532Y-88815437D01*
X164390183Y-88866817D01*
X164326366Y-88884500D01*
X162966123Y-88884500D01*
X162899084Y-88864815D01*
X162853329Y-88812011D01*
X162843385Y-88742853D01*
X162872410Y-88679297D01*
X162875492Y-88675986D01*
X162876315Y-88674946D01*
X162968356Y-88525724D01*
X162968359Y-88525717D01*
X163019827Y-88370396D01*
X163059599Y-88312951D01*
X163124115Y-88286127D01*
X163192891Y-88298442D01*
X163212459Y-88310595D01*
X163322776Y-88394252D01*
X163457186Y-88447255D01*
X163457188Y-88447256D01*
X163541656Y-88457400D01*
X164017200Y-88457400D01*
X164017200Y-87931899D01*
X164036885Y-87864860D01*
X164089689Y-87819105D01*
X164141198Y-87807899D01*
X164213201Y-87807899D01*
X164280239Y-87827584D01*
G37*
%TD.AperFunction*%
%TA.AperFunction,Conductor*%
G36*
X163020039Y-87501285D02*
G01*
X163065794Y-87554089D01*
X163077000Y-87605600D01*
X163077000Y-87637400D01*
X163139345Y-87637400D01*
X163206384Y-87657085D01*
X163214271Y-87662597D01*
X163309216Y-87734597D01*
X163350739Y-87790789D01*
X163355290Y-87860511D01*
X163321425Y-87921624D01*
X163259895Y-87954728D01*
X163234290Y-87957400D01*
X163066925Y-87957400D01*
X163027796Y-87978766D01*
X163001438Y-87981600D01*
X161820500Y-87981600D01*
X161753461Y-87961915D01*
X161707706Y-87909111D01*
X161696500Y-87857600D01*
X161696500Y-87605600D01*
X161716185Y-87538561D01*
X161768989Y-87492806D01*
X161820500Y-87481600D01*
X162953000Y-87481600D01*
X163020039Y-87501285D01*
G37*
%TD.AperFunction*%
%TA.AperFunction,Conductor*%
G36*
X175264042Y-76700765D02*
G01*
X175285151Y-76702148D01*
X175518116Y-76717417D01*
X175534172Y-76719532D01*
X175722268Y-76756946D01*
X175784176Y-76789330D01*
X175785755Y-76790881D01*
X177209117Y-78214243D01*
X177242602Y-78275566D01*
X177243053Y-78277733D01*
X177280465Y-78465814D01*
X177282583Y-78481895D01*
X177299235Y-78735956D01*
X177299500Y-78744066D01*
X177299500Y-81072730D01*
X177279815Y-81139769D01*
X177227011Y-81185524D01*
X177162898Y-81196088D01*
X177098411Y-81189500D01*
X175698398Y-81189500D01*
X175698381Y-81189501D01*
X175595603Y-81200000D01*
X175595600Y-81200001D01*
X175429068Y-81255185D01*
X175429063Y-81255187D01*
X175279742Y-81347289D01*
X175226124Y-81400907D01*
X175164801Y-81434391D01*
X175095109Y-81429406D01*
X175050763Y-81400906D01*
X174829945Y-81180088D01*
X174796460Y-81118765D01*
X174801444Y-81049073D01*
X174843316Y-80993140D01*
X174908780Y-80968723D01*
X174941818Y-80970790D01*
X174965683Y-80975537D01*
X175024518Y-80979392D01*
X173406019Y-79360893D01*
X173372534Y-79299570D01*
X173369700Y-79273212D01*
X173369700Y-78948991D01*
X173389385Y-78881952D01*
X173401552Y-78866017D01*
X173401733Y-78865816D01*
X173417575Y-78838377D01*
X174010000Y-78838377D01*
X174040779Y-79032709D01*
X174101580Y-79219833D01*
X174190904Y-79395143D01*
X174306554Y-79554320D01*
X174445680Y-79693446D01*
X174604857Y-79809096D01*
X174780167Y-79898420D01*
X174967291Y-79959221D01*
X175161623Y-79990000D01*
X175358377Y-79990000D01*
X175552709Y-79959221D01*
X175739833Y-79898420D01*
X175915143Y-79809096D01*
X176074320Y-79693446D01*
X176213446Y-79554320D01*
X176329096Y-79395143D01*
X176418420Y-79219833D01*
X176479221Y-79032709D01*
X176510000Y-78838377D01*
X176510000Y-78641623D01*
X176479221Y-78447291D01*
X176418420Y-78260167D01*
X176329096Y-78084857D01*
X176213446Y-77925680D01*
X176074320Y-77786554D01*
X175915143Y-77670904D01*
X175739833Y-77581580D01*
X175552709Y-77520779D01*
X175358377Y-77490000D01*
X175161623Y-77490000D01*
X174967291Y-77520779D01*
X174780167Y-77581580D01*
X174604857Y-77670904D01*
X174445680Y-77786554D01*
X174306554Y-77925680D01*
X174190904Y-78084857D01*
X174101580Y-78260167D01*
X174040779Y-78447291D01*
X174010000Y-78641623D01*
X174010000Y-78838377D01*
X173417575Y-78838377D01*
X173496379Y-78701884D01*
X173554874Y-78521856D01*
X173574660Y-78333600D01*
X173554874Y-78145344D01*
X173496379Y-77965316D01*
X173401733Y-77801384D01*
X173275071Y-77660712D01*
X173275070Y-77660711D01*
X173121934Y-77549451D01*
X173121929Y-77549448D01*
X172949007Y-77472457D01*
X172949002Y-77472455D01*
X172803201Y-77441465D01*
X172763846Y-77433100D01*
X172574554Y-77433100D01*
X172542097Y-77439998D01*
X172389397Y-77472455D01*
X172389392Y-77472457D01*
X172216470Y-77549448D01*
X172216465Y-77549451D01*
X172166274Y-77585918D01*
X172100468Y-77609398D01*
X172093389Y-77609600D01*
X172078052Y-77609600D01*
X172011013Y-77589915D01*
X171990371Y-77573281D01*
X171894351Y-77477261D01*
X171894350Y-77477260D01*
X171747516Y-77386692D01*
X171583753Y-77332426D01*
X171583751Y-77332425D01*
X171482678Y-77322100D01*
X170909330Y-77322100D01*
X170909312Y-77322101D01*
X170808247Y-77332425D01*
X170644484Y-77386692D01*
X170644477Y-77386695D01*
X170499096Y-77476367D01*
X170431704Y-77494807D01*
X170368904Y-77476367D01*
X170223522Y-77386695D01*
X170223517Y-77386693D01*
X170223516Y-77386692D01*
X170059753Y-77332426D01*
X170059751Y-77332425D01*
X169958678Y-77322100D01*
X169385330Y-77322100D01*
X169385312Y-77322101D01*
X169284247Y-77332425D01*
X169120484Y-77386692D01*
X169120477Y-77386695D01*
X168975096Y-77476367D01*
X168907704Y-77494807D01*
X168844904Y-77476367D01*
X168699522Y-77386695D01*
X168699517Y-77386693D01*
X168699516Y-77386692D01*
X168535753Y-77332426D01*
X168535751Y-77332425D01*
X168434678Y-77322100D01*
X167861330Y-77322100D01*
X167861312Y-77322101D01*
X167760247Y-77332425D01*
X167596484Y-77386692D01*
X167596477Y-77386695D01*
X167451096Y-77476367D01*
X167383704Y-77494807D01*
X167320904Y-77476367D01*
X167175522Y-77386695D01*
X167175517Y-77386693D01*
X167175516Y-77386692D01*
X167011753Y-77332426D01*
X167011751Y-77332425D01*
X166910678Y-77322100D01*
X166337330Y-77322100D01*
X166337312Y-77322101D01*
X166236247Y-77332425D01*
X166072484Y-77386692D01*
X166072477Y-77386695D01*
X165927096Y-77476367D01*
X165859704Y-77494807D01*
X165796904Y-77476367D01*
X165651522Y-77386695D01*
X165651517Y-77386693D01*
X165651516Y-77386692D01*
X165487753Y-77332426D01*
X165487751Y-77332425D01*
X165386678Y-77322100D01*
X164813330Y-77322100D01*
X164813312Y-77322101D01*
X164712247Y-77332425D01*
X164548484Y-77386692D01*
X164548481Y-77386693D01*
X164401648Y-77477261D01*
X164307529Y-77571381D01*
X164246206Y-77604866D01*
X164219848Y-77607700D01*
X160154204Y-77607700D01*
X160018877Y-77634618D01*
X160018867Y-77634621D01*
X159891392Y-77687422D01*
X159776654Y-77764087D01*
X159327387Y-78213354D01*
X159293743Y-78263708D01*
X159250728Y-78328083D01*
X159250721Y-78328095D01*
X159197921Y-78455567D01*
X159197918Y-78455577D01*
X159171000Y-78590904D01*
X159171000Y-79569911D01*
X159151315Y-79636950D01*
X159112098Y-79675449D01*
X159065344Y-79704287D01*
X158941289Y-79828342D01*
X158849187Y-79977663D01*
X158849185Y-79977668D01*
X158849115Y-79977880D01*
X158794001Y-80144203D01*
X158794001Y-80144204D01*
X158794000Y-80144204D01*
X158783500Y-80246983D01*
X158783500Y-81297001D01*
X158783501Y-81297019D01*
X158794000Y-81399796D01*
X158794001Y-81399799D01*
X158834333Y-81521511D01*
X158849186Y-81566334D01*
X158908306Y-81662184D01*
X158941289Y-81715657D01*
X159044381Y-81818749D01*
X159077866Y-81880072D01*
X159080700Y-81906430D01*
X159080700Y-82545530D01*
X159063432Y-82608650D01*
X159029457Y-82666099D01*
X159029454Y-82666106D01*
X158983602Y-82823926D01*
X158983601Y-82823932D01*
X158980700Y-82860798D01*
X158980700Y-82900498D01*
X158961015Y-82967537D01*
X158908211Y-83013292D01*
X158839053Y-83023236D01*
X158775497Y-82994211D01*
X158769019Y-82988179D01*
X158703161Y-82922321D01*
X158703152Y-82922314D01*
X158561796Y-82838717D01*
X158561793Y-82838716D01*
X158404095Y-82792900D01*
X158404089Y-82792899D01*
X158367249Y-82790000D01*
X157926600Y-82790000D01*
X157926600Y-83665500D01*
X157906915Y-83732539D01*
X157854111Y-83778294D01*
X157802600Y-83789500D01*
X156985898Y-83789500D01*
X156949032Y-83792401D01*
X156949026Y-83792402D01*
X156802145Y-83835076D01*
X156767550Y-83840000D01*
X156381298Y-83840000D01*
X156372780Y-83845094D01*
X156302947Y-83842843D01*
X156268812Y-83825372D01*
X156230930Y-83797849D01*
X156230929Y-83797848D01*
X156058007Y-83720857D01*
X156058002Y-83720855D01*
X155912201Y-83689865D01*
X155872846Y-83681500D01*
X155683554Y-83681500D01*
X155664684Y-83685511D01*
X155498397Y-83720855D01*
X155498392Y-83720857D01*
X155325470Y-83797848D01*
X155325465Y-83797851D01*
X155172329Y-83909111D01*
X155045666Y-84049785D01*
X154951021Y-84213715D01*
X154951018Y-84213722D01*
X154892527Y-84393740D01*
X154892526Y-84393744D01*
X154872740Y-84582000D01*
X154892526Y-84770256D01*
X154892527Y-84770259D01*
X154951018Y-84950277D01*
X154951021Y-84950284D01*
X155045667Y-85114216D01*
X155136778Y-85215405D01*
X155172329Y-85254888D01*
X155325465Y-85366148D01*
X155325470Y-85366151D01*
X155419591Y-85408057D01*
X155472828Y-85453307D01*
X155493149Y-85520156D01*
X155474104Y-85587380D01*
X155456836Y-85609017D01*
X155272923Y-85792930D01*
X155256965Y-85816815D01*
X155236529Y-85847400D01*
X155201738Y-85899467D01*
X155201733Y-85899475D01*
X155152699Y-86017855D01*
X155152697Y-86017861D01*
X155127700Y-86143528D01*
X155127700Y-86855370D01*
X155108015Y-86922409D01*
X155055211Y-86968164D01*
X154986053Y-86978108D01*
X154926569Y-86950942D01*
X154925919Y-86951766D01*
X154922565Y-86949114D01*
X154922497Y-86949083D01*
X154922334Y-86948931D01*
X154920258Y-86947290D01*
X154920256Y-86947288D01*
X154801595Y-86874098D01*
X154770936Y-86855187D01*
X154770931Y-86855185D01*
X154732608Y-86842486D01*
X154604397Y-86800001D01*
X154604395Y-86800000D01*
X154501610Y-86789500D01*
X153101598Y-86789500D01*
X153101578Y-86789502D01*
X153037100Y-86796088D01*
X152968407Y-86783318D01*
X152917524Y-86735436D01*
X152900500Y-86672730D01*
X152900500Y-83507269D01*
X152920185Y-83440230D01*
X152972989Y-83394475D01*
X153037100Y-83383911D01*
X153101591Y-83390500D01*
X154501608Y-83390499D01*
X154604397Y-83379999D01*
X154725112Y-83339998D01*
X156404304Y-83339998D01*
X156404305Y-83340000D01*
X157426600Y-83340000D01*
X157426600Y-82790000D01*
X156985950Y-82790000D01*
X156949110Y-82792899D01*
X156949104Y-82792900D01*
X156791406Y-82838716D01*
X156791403Y-82838717D01*
X156650047Y-82922314D01*
X156650038Y-82922321D01*
X156533921Y-83038438D01*
X156533914Y-83038447D01*
X156450318Y-83179801D01*
X156404499Y-83337513D01*
X156404304Y-83339998D01*
X154725112Y-83339998D01*
X154770934Y-83324814D01*
X154920256Y-83232712D01*
X155044312Y-83108656D01*
X155136414Y-82959334D01*
X155191599Y-82792797D01*
X155202100Y-82690009D01*
X155202099Y-81889992D01*
X155194821Y-81818749D01*
X155191599Y-81787203D01*
X155191598Y-81787200D01*
X155167891Y-81715657D01*
X155136414Y-81620666D01*
X155044312Y-81471344D01*
X154920256Y-81347288D01*
X154779838Y-81260678D01*
X154770936Y-81255187D01*
X154770931Y-81255185D01*
X154764775Y-81253145D01*
X154604397Y-81200001D01*
X154604395Y-81200000D01*
X154501610Y-81189500D01*
X153101598Y-81189500D01*
X153101578Y-81189502D01*
X153037100Y-81196088D01*
X152968407Y-81183318D01*
X152917524Y-81135436D01*
X152900500Y-81072730D01*
X152900500Y-78838377D01*
X153690000Y-78838377D01*
X153720779Y-79032709D01*
X153781580Y-79219833D01*
X153870904Y-79395143D01*
X153986554Y-79554320D01*
X154125680Y-79693446D01*
X154284857Y-79809096D01*
X154460167Y-79898420D01*
X154647291Y-79959221D01*
X154841623Y-79990000D01*
X155038377Y-79990000D01*
X155232709Y-79959221D01*
X155419833Y-79898420D01*
X155595143Y-79809096D01*
X155754320Y-79693446D01*
X155893446Y-79554320D01*
X156009096Y-79395143D01*
X156098420Y-79219833D01*
X156159221Y-79032709D01*
X156190000Y-78838377D01*
X156190000Y-78641623D01*
X156159221Y-78447291D01*
X156098420Y-78260167D01*
X156009096Y-78084857D01*
X155893446Y-77925680D01*
X155754320Y-77786554D01*
X155595143Y-77670904D01*
X155419833Y-77581580D01*
X155232709Y-77520779D01*
X155038377Y-77490000D01*
X154841623Y-77490000D01*
X154647291Y-77520779D01*
X154460167Y-77581580D01*
X154284857Y-77670904D01*
X154125680Y-77786554D01*
X153986554Y-77925680D01*
X153870904Y-78084857D01*
X153781580Y-78260167D01*
X153720779Y-78447291D01*
X153690000Y-78641623D01*
X153690000Y-78838377D01*
X152900500Y-78838377D01*
X152900500Y-78744066D01*
X152900765Y-78735957D01*
X152906948Y-78641623D01*
X152917417Y-78481881D01*
X152919531Y-78465829D01*
X152956947Y-78277728D01*
X152989330Y-78215822D01*
X152990881Y-78214243D01*
X154414243Y-76790881D01*
X154475566Y-76757396D01*
X154477565Y-76756979D01*
X154665829Y-76719531D01*
X154681881Y-76717417D01*
X154916255Y-76702056D01*
X154935958Y-76700765D01*
X154944067Y-76700500D01*
X155005892Y-76700500D01*
X175194108Y-76700500D01*
X175255933Y-76700500D01*
X175264042Y-76700765D01*
G37*
%TD.AperFunction*%
%TA.AperFunction,Conductor*%
G36*
X162670798Y-85824333D02*
G01*
X162770692Y-85885950D01*
X162770699Y-85885953D01*
X162934348Y-85940181D01*
X163011560Y-85948069D01*
X163076252Y-85974465D01*
X163116403Y-86031646D01*
X163119267Y-86101457D01*
X163114313Y-86116917D01*
X163066852Y-86237268D01*
X163063693Y-86263578D01*
X163056700Y-86321813D01*
X163056700Y-86321818D01*
X163056700Y-86321819D01*
X163056700Y-86669277D01*
X163037015Y-86736316D01*
X162984211Y-86782071D01*
X162915053Y-86792015D01*
X162851497Y-86762990D01*
X162845019Y-86756958D01*
X162752345Y-86664284D01*
X162603124Y-86572243D01*
X162603119Y-86572241D01*
X162538673Y-86550886D01*
X162481228Y-86511113D01*
X162454405Y-86446597D01*
X162458600Y-86398588D01*
X162478798Y-86329069D01*
X162481700Y-86292194D01*
X162481700Y-85929871D01*
X162501385Y-85862832D01*
X162554189Y-85817077D01*
X162623347Y-85807133D01*
X162670798Y-85824333D01*
G37*
%TD.AperFunction*%
%TA.AperFunction,Conductor*%
G36*
X170618774Y-81093129D02*
G01*
X170673844Y-81136130D01*
X170676187Y-81139514D01*
X170690724Y-81161271D01*
X170690727Y-81161274D01*
X171836581Y-82307127D01*
X171870066Y-82368450D01*
X171872900Y-82394808D01*
X171872900Y-82676909D01*
X171853215Y-82743948D01*
X171800411Y-82789703D01*
X171783495Y-82795985D01*
X171638006Y-82838253D01*
X171638003Y-82838255D01*
X171496005Y-82922232D01*
X171432884Y-82939500D01*
X171260329Y-82939500D01*
X171134661Y-82964497D01*
X171134655Y-82964499D01*
X171016274Y-83013534D01*
X170909726Y-83084726D01*
X169801724Y-84192728D01*
X169742161Y-84281871D01*
X169742162Y-84281872D01*
X169730533Y-84299275D01*
X169681499Y-84417655D01*
X169681497Y-84417661D01*
X169656500Y-84543328D01*
X169656500Y-85164166D01*
X169636815Y-85231205D01*
X169606812Y-85263432D01*
X169555757Y-85301651D01*
X169555751Y-85301658D01*
X169469506Y-85416865D01*
X169469502Y-85416872D01*
X169419208Y-85551718D01*
X169413048Y-85609017D01*
X169412801Y-85611324D01*
X169412800Y-85611336D01*
X169412800Y-85712500D01*
X169393115Y-85779539D01*
X169340311Y-85825294D01*
X169288800Y-85836500D01*
X169191599Y-85836500D01*
X169124560Y-85816815D01*
X169078805Y-85764011D01*
X169067599Y-85712500D01*
X169067599Y-85611330D01*
X169067598Y-85611324D01*
X169067597Y-85611317D01*
X169061191Y-85551718D01*
X169010896Y-85416870D01*
X169010895Y-85416869D01*
X169010893Y-85416865D01*
X168924647Y-85301656D01*
X168924644Y-85301653D01*
X168809435Y-85215407D01*
X168809428Y-85215403D01*
X168674582Y-85165109D01*
X168674583Y-85165109D01*
X168614983Y-85158702D01*
X168614981Y-85158701D01*
X168614973Y-85158701D01*
X168614964Y-85158701D01*
X167731829Y-85158701D01*
X167731823Y-85158702D01*
X167672218Y-85165109D01*
X167648918Y-85173799D01*
X167635825Y-85178683D01*
X167592493Y-85186501D01*
X167493518Y-85186501D01*
X167427546Y-85167495D01*
X167354522Y-85121610D01*
X167354518Y-85121609D01*
X167184262Y-85062033D01*
X167184249Y-85062030D01*
X167005004Y-85041835D01*
X167004996Y-85041835D01*
X166825750Y-85062030D01*
X166825745Y-85062031D01*
X166655476Y-85121611D01*
X166557672Y-85183066D01*
X166490435Y-85202066D01*
X166423600Y-85181698D01*
X166378386Y-85128430D01*
X166367700Y-85078072D01*
X166367700Y-84318209D01*
X166365736Y-84308338D01*
X166365137Y-84305324D01*
X166355602Y-84257388D01*
X166361829Y-84187799D01*
X166404692Y-84132622D01*
X166470582Y-84109377D01*
X166477218Y-84109199D01*
X166575000Y-84109198D01*
X166575000Y-83384200D01*
X167075000Y-83384200D01*
X167075000Y-84109199D01*
X167174140Y-84109199D01*
X167174154Y-84109198D01*
X167275152Y-84098880D01*
X167438800Y-84044653D01*
X167438811Y-84044648D01*
X167585534Y-83954147D01*
X167585538Y-83954144D01*
X167707444Y-83832238D01*
X167707447Y-83832234D01*
X167797948Y-83685511D01*
X167797953Y-83685500D01*
X167852180Y-83521852D01*
X167862499Y-83420854D01*
X167862500Y-83420841D01*
X167862500Y-83384200D01*
X167075000Y-83384200D01*
X166575000Y-83384200D01*
X166575000Y-83008200D01*
X166594685Y-82941161D01*
X166647489Y-82895406D01*
X166699000Y-82884200D01*
X167862499Y-82884200D01*
X167862499Y-82847560D01*
X167862498Y-82847545D01*
X167852180Y-82746547D01*
X167795681Y-82576042D01*
X167797357Y-82575486D01*
X167788245Y-82515510D01*
X167816762Y-82451725D01*
X167875237Y-82413482D01*
X167945104Y-82412925D01*
X167952074Y-82415135D01*
X167968742Y-82420967D01*
X167968745Y-82420968D01*
X167968746Y-82420968D01*
X167968750Y-82420969D01*
X168147996Y-82441165D01*
X168148000Y-82441165D01*
X168148004Y-82441165D01*
X168327249Y-82420969D01*
X168327252Y-82420968D01*
X168327255Y-82420968D01*
X168497522Y-82361389D01*
X168650262Y-82265416D01*
X168777816Y-82137862D01*
X168873789Y-81985122D01*
X168873789Y-81985120D01*
X168875514Y-81982376D01*
X168927849Y-81936085D01*
X168996902Y-81925437D01*
X169060751Y-81953812D01*
X169068189Y-81960667D01*
X169169738Y-82062216D01*
X169322478Y-82158189D01*
X169492745Y-82217768D01*
X169492750Y-82217769D01*
X169671996Y-82237965D01*
X169672000Y-82237965D01*
X169672004Y-82237965D01*
X169851249Y-82217769D01*
X169851252Y-82217768D01*
X169851255Y-82217768D01*
X170021522Y-82158189D01*
X170174262Y-82062216D01*
X170301816Y-81934662D01*
X170397789Y-81781922D01*
X170457368Y-81611655D01*
X170457532Y-81610200D01*
X170477565Y-81432403D01*
X170477565Y-81432396D01*
X170457369Y-81253150D01*
X170457366Y-81253138D01*
X170456046Y-81249365D01*
X170455913Y-81246771D01*
X170455818Y-81246353D01*
X170455891Y-81246336D01*
X170452480Y-81179587D01*
X170487206Y-81118958D01*
X170549198Y-81086728D01*
X170618774Y-81093129D01*
G37*
%TD.AperFunction*%
%TA.AperFunction,Conductor*%
G36*
X164283086Y-79028385D02*
G01*
X164303728Y-79045019D01*
X164393628Y-79134919D01*
X164427113Y-79196242D01*
X164422129Y-79265934D01*
X164393629Y-79310281D01*
X164279659Y-79424251D01*
X164189093Y-79571081D01*
X164189091Y-79571086D01*
X164171723Y-79623500D01*
X164134826Y-79734847D01*
X164134826Y-79734848D01*
X164134825Y-79734848D01*
X164124500Y-79835915D01*
X164124500Y-80434269D01*
X164124501Y-80434287D01*
X164134825Y-80535352D01*
X164171109Y-80644849D01*
X164189092Y-80699116D01*
X164279660Y-80845950D01*
X164401650Y-80967940D01*
X164401656Y-80967943D01*
X164402405Y-80968536D01*
X164402790Y-80969080D01*
X164406757Y-80973047D01*
X164406079Y-80973724D01*
X164442785Y-81025556D01*
X164449500Y-81065807D01*
X164449500Y-81105131D01*
X164430494Y-81171103D01*
X164374211Y-81260677D01*
X164374209Y-81260681D01*
X164314633Y-81430937D01*
X164314630Y-81430950D01*
X164294435Y-81610196D01*
X164294435Y-81614932D01*
X164274750Y-81681971D01*
X164221946Y-81727726D01*
X164152788Y-81737670D01*
X164089232Y-81708645D01*
X164063048Y-81676932D01*
X164060440Y-81672416D01*
X164054533Y-81662184D01*
X163927871Y-81521512D01*
X163927870Y-81521511D01*
X163774734Y-81410251D01*
X163774729Y-81410248D01*
X163601807Y-81333257D01*
X163601802Y-81333255D01*
X163435201Y-81297844D01*
X163416646Y-81293900D01*
X163227354Y-81293900D01*
X163183779Y-81303162D01*
X163114112Y-81297844D01*
X163058379Y-81255706D01*
X163034275Y-81190126D01*
X163034000Y-81181871D01*
X163034000Y-81022000D01*
X161820500Y-81022000D01*
X161753461Y-81002315D01*
X161707706Y-80949511D01*
X161696500Y-80898000D01*
X161696500Y-79547000D01*
X162196500Y-79547000D01*
X162196500Y-80522000D01*
X163033999Y-80522000D01*
X163033999Y-80247028D01*
X163033998Y-80247013D01*
X163023505Y-80144302D01*
X162968358Y-79977880D01*
X162968356Y-79977875D01*
X162876315Y-79828654D01*
X162752345Y-79704684D01*
X162603124Y-79612643D01*
X162603119Y-79612641D01*
X162436697Y-79557494D01*
X162436690Y-79557493D01*
X162333986Y-79547000D01*
X162196500Y-79547000D01*
X161696500Y-79547000D01*
X161559027Y-79547000D01*
X161559012Y-79547001D01*
X161456302Y-79557494D01*
X161289880Y-79612641D01*
X161289875Y-79612643D01*
X161140654Y-79704684D01*
X161016683Y-79828655D01*
X161016679Y-79828660D01*
X161014826Y-79831665D01*
X161013018Y-79833290D01*
X161012202Y-79834323D01*
X161012025Y-79834183D01*
X160962874Y-79878385D01*
X160893911Y-79889601D01*
X160829831Y-79861752D01*
X160803753Y-79831653D01*
X160803737Y-79831628D01*
X160801712Y-79828344D01*
X160677656Y-79704288D01*
X160677655Y-79704287D01*
X160630902Y-79675449D01*
X160584178Y-79623500D01*
X160572000Y-79569911D01*
X160572000Y-79132700D01*
X160591685Y-79065661D01*
X160644489Y-79019906D01*
X160696000Y-79008700D01*
X164216047Y-79008700D01*
X164283086Y-79028385D01*
G37*
%TD.AperFunction*%
%TD*%
M02*
